<svg width="2300" height="1856" version="1.1" xmlns="http://www.w3.org/2000/svg" desc="Created with imagetracer.js version 1.2.6" ><path fill="rgb(248,246,234)" stroke="rgb(248,246,234)" stroke-width="0" opacity="1" d="M 0 0 L 2300 0 L 2300 1856 L 0 1856 L 0 0 Z M 1365 206 L 1364 207 L 1355 207 L 1345 209 L 1328 214 Q 1314 219 1305 228 Q 1292 239 1288 257 L 1282 257 L 1281 258 L 1268 258 L 1267 259 L 1254 259 L 1253 260 L 1241 260 L 1240 261 L 1229 261 L 1218 263 L 1207 263 L 1206 264 L 1189 265 L 1188 266 L 1181 266 L 1180 267 L 1173 267 L 1172 268 L 1165 268 L 1164 269 L 1157 269 L 1150 271 L 1138 272 L 1059 288 L 1017 299 L 1001 305 L 994 306 L 923 332 L 863 360 L 801 396 L 758 427 L 747 437 Q 744 436 745 439 L 720 460 L 718 463 L 712 468 Q 713 470 710 469 L 710 471 L 708 471 L 708 473 L 705 475 Q 706 477 704 476 L 683 499 Q 684 501 681 500 L 665 521 Q 666 523 663 522 L 633 567 L 606 618 L 589 660 L 589 663 L 580 687 L 571 718 L 571 722 L 567 734 L 563 756 L 561 761 L 561 766 L 559 770 L 557 784 L 555 789 L 551 819 L 548 831 L 548 837 L 546 844 L 546 850 L 542 869 L 539 897 L 538 898 L 538 904 L 535 918 L 535 926 L 533 934 L 529 971 L 528 972 L 528 980 L 525 997 L 525 1004 L 524 1005 L 524 1012 L 523 1013 L 523 1020 L 522 1021 L 519 1053 L 516 1068 L 516 1075 L 510 1104 L 504 1124 L 316 1251 Q 251 1297 190 1348 Q 191 1350 189 1349 Q 177 1359 169 1373 L 161 1396 L 161 1414 L 162 1419 L 172 1439 Q 182 1452 200 1459 L 213 1463 L 226 1464 L 227 1465 L 256 1465 L 257 1464 L 267 1464 L 311 1455 L 361 1437 L 414 1410 L 460 1411 L 461 1412 L 481 1413 L 503 1417 L 509 1417 L 562 1427 L 622 1442 L 701 1467 L 709 1471 L 715 1472 L 760 1489 L 799 1506 L 807 1508 L 813 1512 L 823 1515 L 834 1521 L 837 1521 L 841 1524 L 976 1583 L 1049 1611 L 1052 1611 L 1055 1613 L 1058 1613 L 1061 1615 L 1080 1620 L 1093 1625 L 1128 1634 L 1141 1636 L 1145 1638 L 1150 1638 L 1173 1643 L 1194 1645 L 1195 1646 L 1229 1648 L 1230 1649 L 1283 1649 L 1284 1648 L 1288 1649 L 1289 1648 L 1312 1647 L 1313 1646 L 1321 1646 L 1342 1642 L 1348 1642 L 1373 1637 L 1403 1629 L 1463 1608 L 1517 1583 Q 1641 1516 1738 1422 L 1741 1420 L 1771 1389 L 1775 1386 L 1805 1353 L 1817 1342 L 1852 1340 L 1854 1340 L 1855 1339 L 1876 1338 L 1887 1336 L 1898 1336 L 1909 1334 L 1920 1334 L 1936 1331 L 1960 1329 L 1967 1327 L 1974 1327 L 1994 1323 L 2000 1323 L 2033 1316 L 2067 1306 L 2089 1297 L 2107 1286 L 2114 1279 Q 2116 1280 2115 1277 L 2117 1277 L 2126 1264 L 2130 1255 L 2134 1237 L 2137 1202 L 2138 1201 L 2138 1187 L 2139 1186 L 2139 1175 L 2140 1174 L 2140 1159 L 2141 1158 L 2141 1139 L 2142 1138 L 2141 1136 L 2142 1135 L 2142 1118 L 2142 1116 L 2143 1113 L 2143 1091 L 2144 1088 L 2144 1086 L 2144 1012 L 2143 1011 L 2144 1008 L 2143 1006 L 2143 982 L 2142 981 L 2143 979 L 2142 977 L 2140 932 L 2139 931 L 2139 919 L 2137 909 L 2136 891 L 2135 890 L 2135 883 L 2131 861 L 2131 855 L 2123 809 L 2123 807 L 2121 803 L 2121 798 L 2117 784 L 2117 780 Q 2111 764 2108 746 L 2097 715 L 2097 712 L 2095 710 L 2081 672 L 2078 668 L 2069 647 Q 2051 611 2030 580 Q 2010 549 1985 524 Q 1986 521 1983 522 L 1983 520 L 1981 520 L 1981 519 L 1963 501 L 1963 499 L 1962 499 L 1949 486 Q 1946 487 1947 484 L 1946 484 L 1927 466 L 1894 439 L 1859 414 L 1801 378 L 1733 344 L 1673 320 L 1606 298 L 1598 297 L 1583 292 L 1579 292 L 1560 286 L 1535 281 L 1526 278 L 1510 276 L 1501 273 L 1490 272 L 1468 267 L 1463 267 L 1461 266 L 1456 246 L 1449 235 L 1438 224 L 1419 214 L 1391 207 L 1365 206 Z " /><path fill="rgb(248,246,234)" stroke="rgb(248,246,234)" stroke-width="0" opacity="1" d="M 1367.5 235 L 1392.5 237 L 1411.5 243 L 1418 247.5 L 1415.5 251 L 1399.5 257 L 1385 258 Q 1383.8 261 1387.5 260 L 1395.5 262 L 1397.5 262 L 1411.5 260 L 1428.5 255 L 1425.5 259 Q 1417.5 264 1406.5 266 L 1400.5 266 L 1392.5 268 L 1382.5 268 L 1381.5 269 L 1370.5 269 L 1369.5 268 L 1359.5 268 L 1337 264 L 1338.5 267 L 1361.5 275 L 1366.5 275 L 1372.5 277 L 1380.5 277 L 1381.5 278 L 1397.5 278 L 1420.5 274 L 1420.5 275 L 1400.5 280 L 1372.5 281 L 1371.5 280 L 1361.5 280 L 1340.5 276 L 1325.5 271 L 1321 266.5 Q 1317.8 263.2 1319 255.5 L 1327.5 246 L 1342.5 239 L 1357.5 236 L 1366.5 236 L 1367.5 235 Z " /><path fill="rgb(248,246,234)" stroke="rgb(248,246,234)" stroke-width="0" opacity="1" d="M 1242.5 295 L 1252 295.5 L 1212.5 309 L 1164.5 333 L 1118.5 363 L 1096 381 Q 1097.1 383.7 1094.5 383 L 1067 409.5 Q 1039.2 439.7 1018 476.5 L 1004 503.5 L 989 540.5 L 991 541 L 1012 499.5 L 1036 460.5 Q 1057.3 429.8 1083.5 404 L 1088.5 400 Q 1162.9 326.9 1280.5 297 L 1280.5 298 Q 1181 334.5 1112 401.5 L 1107.5 407 Q 1105.3 406.3 1106 408.5 L 1084 432.5 L 1053 476.5 L 1032 516.5 L 1025 534.5 L 1024 544.5 L 1028.5 550 L 1033.5 551 Q 1039.6 549.6 1042 544.5 Q 1057.4 511.4 1076 481.5 L 1093 457.5 L 1121 424 Q 1123.7 425.1 1123 422.5 L 1127 420 L 1127 418 Q 1129.7 419.1 1129 416.5 Q 1169.4 377.9 1220.5 350 L 1243.5 338 L 1287.5 319 L 1323.5 307 L 1335.5 305 L 1335.5 306 L 1297.5 323 L 1247.5 350 L 1215.5 371 L 1171 407 Q 1172.1 409.7 1169.5 409 Q 1137.9 438.4 1113 474.5 L 1094 504.5 L 1084 524.5 L 1081 533.5 L 1083 532.5 Q 1095.2 508.2 1111 487.5 L 1147 443 Q 1149.7 444.1 1149 441.5 Q 1188.1 399.1 1237.5 367 Q 1269 347 1303.5 330 L 1342.5 313 L 1357.5 308 L 1362.5 308 L 1363.5 309 L 1375.5 309 L 1413.5 331 L 1458.5 363 L 1493.5 394 L 1501 399 L 1501 401 L 1503 401 L 1503 403 L 1505 403 Q 1503.9 405.7 1506.5 405 L 1535 434.5 L 1541 443 Q 1543.7 441.9 1543 444.5 Q 1561.1 464.4 1576 487.5 Q 1597.2 519.8 1614 556.5 L 1635 611.5 L 1650 664.5 L 1651 673 L 1653 672.5 L 1652 671.5 L 1652 663.5 L 1651 662.5 L 1649 645.5 L 1647 640.5 L 1647 635.5 L 1635 590.5 L 1627 567.5 L 1624 562.5 L 1624 559.5 L 1600 509.5 Q 1566.2 448.8 1517.5 403 L 1512.5 399 L 1486.5 375 L 1453.5 349 L 1392 308.5 L 1397.5 308 L 1410.5 313 L 1446.5 332 L 1497.5 365 L 1526.5 387 L 1556.5 415 L 1558 415 L 1573 433 L 1575 433 L 1575 435 Q 1577.7 433.9 1577 436.5 Q 1584.8 442.5 1589 451 Q 1591.7 449.9 1591 452.5 L 1612 479.5 L 1637 520.5 L 1657 562.5 L 1675 613.5 L 1687 661.5 L 1688 672.5 L 1690 677.5 L 1690 682.5 L 1693 693.5 L 1695 711.5 L 1697 718.5 L 1697 726.5 L 1698 727.5 L 1698 734.5 L 1701 751.5 L 1703 787.5 L 1704 788.5 L 1705 841.5 L 1706 842.5 L 1705 844.5 L 1706 849.5 L 1706 851.5 L 1706 887.5 L 1705 888.5 L 1705 890.5 L 1705 915.5 L 1704 917.5 L 1704 919.5 L 1703 957.5 L 1702 958.5 L 1700 999.5 L 1698 1009.5 L 1698 1023.5 L 1697 1024.5 L 1697 1033.5 L 1695 1044.5 L 1694 1066.5 L 1692 1074.5 L 1692 1083.5 L 1690 1093.5 L 1690 1102.5 L 1689 1103.5 L 1689 1111.5 L 1688 1112.5 L 1688 1121.5 L 1686 1130.5 L 1681 1183.5 L 1677 1206.5 L 1676 1223.5 L 1674 1231.5 L 1673 1248.5 L 1671 1260 L 1646.5 1257 L 1645 1255.5 L 1648 1228.5 L 1650 1220.5 L 1650 1213.5 L 1651 1212.5 L 1653 1187.5 L 1656 1171.5 L 1656 1162.5 L 1657 1161.5 L 1657 1153.5 L 1659 1143.5 L 1661 1114.5 L 1664 1097.5 L 1666 1061.5 L 1667 1060.5 L 1667 1049.5 L 1668 1048.5 L 1668 1035.5 L 1669 1034.5 L 1670 1010.5 L 1671 1009.5 L 1671 995.5 L 1672 994.5 L 1674 932.5 L 1675 930.5 L 1675 928.5 L 1675 851.5 L 1674 849.5 L 1674 847.5 L 1674 822.5 L 1673 821.5 L 1673 806.5 L 1672 805.5 L 1671 782.5 L 1670 781.5 L 1670 773.5 L 1669 772.5 L 1669 764.5 L 1668 763.5 L 1666 743.5 L 1664 736.5 L 1664 729.5 L 1662 724.5 L 1659.5 709 L 1659 719.5 L 1661 728.5 L 1663 761.5 L 1664 762.5 L 1664 772.5 L 1665 773.5 L 1665 787.5 L 1666 788.5 L 1667 834.5 L 1668 835.5 L 1668 891.5 L 1667 894.5 L 1667 896.5 L 1667 923.5 L 1666 924.5 L 1666 942.5 L 1665 943.5 L 1666 945.5 L 1665 946.5 L 1665 957.5 L 1664 958.5 L 1664 960.5 L 1664 973.5 L 1663 974.5 L 1663 985.5 L 1662 986.5 L 1660 1024.5 L 1659 1025.5 L 1659 1036.5 L 1658 1037.5 L 1658 1048.5 L 1657 1049.5 L 1657 1059.5 L 1655 1069.5 L 1653 1098.5 L 1652 1099.5 L 1652 1107.5 L 1649 1124.5 L 1648 1143.5 L 1647 1144.5 L 1644 1177.5 L 1643 1178.5 L 1642 1193.5 L 1639 1210.5 L 1637 1235.5 L 1634 1254 L 1619 1252 L 1625 1216.5 L 1625 1210.5 L 1627 1204.5 L 1628 1191.5 L 1630 1184.5 L 1630 1175.5 L 1632 1168.5 L 1634 1145.5 L 1636 1137.5 L 1638 1105.5 L 1640 1094.5 L 1640 1092.5 L 1642 1047.5 L 1643 1046.5 L 1643 1029.5 L 1644 1028.5 L 1644 1026.5 L 1644 1007.5 L 1645 1006.5 L 1644 1004.5 L 1645 1003.5 L 1645 982.5 L 1646 977.5 L 1646 975.5 L 1646 955.5 L 1647 951.5 L 1647 949.5 L 1646.5 920 L 1644 942.5 L 1644 944.5 L 1642 978.5 L 1640 989.5 L 1640 1002.5 L 1638 1012.5 L 1638 1023.5 L 1637 1024.5 L 1633 1068.5 L 1630 1084.5 L 1630 1086.5 L 1630 1094.5 L 1628 1101.5 L 1627 1117.5 L 1625 1124.5 L 1624 1139.5 L 1620 1158.5 L 1618 1178.5 L 1616 1183.5 L 1615 1196.5 L 1611 1213.5 L 1611 1219.5 L 1608 1231.5 L 1607 1242.5 L 1604.5 1249 L 1588 1246 L 1591 1235.5 L 1591 1230.5 L 1594 1219.5 L 1594 1213.5 L 1599 1189.5 L 1602 1158.5 L 1604 1150.5 L 1604 1141.5 L 1606 1130.5 L 1606 1117.5 L 1607 1116.5 Q 1605.5 1109 1608 1105.5 L 1608 1103.5 L 1608 1091.5 L 1609 1089.5 L 1609 1087.5 L 1609 1068.5 L 1610 1066.5 L 1610 1064.5 L 1609.5 1034 L 1608 1038.5 L 1605 1069.5 L 1603 1076.5 L 1598 1122.5 L 1593 1148.5 L 1592 1162.5 L 1588 1180.5 L 1587 1191.5 L 1585 1196.5 L 1582 1218.5 L 1580 1223.5 L 1577 1242.5 L 1575.5 1244 L 1558 1240 L 1562 1224.5 L 1562 1219.5 L 1566 1200.5 L 1566 1193.5 L 1568 1188.5 L 1569 1176.5 L 1570 1175.5 L 1570 1173.5 L 1572 1145.5 L 1574 1135.5 L 1574 1124.5 L 1575 1123.5 L 1575 1110.5 L 1576 1109.5 L 1576 1085.5 L 1575 1085.5 L 1572 1108.5 L 1570 1115.5 L 1570 1122.5 L 1566 1140.5 L 1566 1147.5 L 1564 1153.5 L 1562 1173.5 L 1549 1238 L 1537.5 1235 L 1532.5 1235 L 1531 1233.5 L 1541 1175.5 L 1541 1167.5 L 1543 1158.5 L 1543 1146.5 L 1544 1145.5 L 1545 1117.5 L 1543 1118.5 L 1541 1135.5 L 1533 1173.5 L 1532 1185.5 L 1525 1214.5 L 1523 1228.5 L 1520.5 1233 L 1500 1228 L 1502 1222.5 L 1503 1210.5 L 1510 1174.5 L 1511 1143.5 L 1512 1142.5 L 1512 1136 Q 1508.7 1134.7 1510 1139.5 L 1508 1144.5 L 1506 1160.5 L 1492 1226 L 1471 1222 L 1474 1210.5 L 1476 1193.5 L 1478 1188.5 L 1480 1164.5 L 1481 1163.5 L 1481 1152 Q 1477.3 1150.7 1479 1156.5 L 1473 1177.5 L 1473 1181.5 L 1464 1220 L 1441 1215 L 1448 1186.5 L 1449 1172.5 L 1450 1171.5 L 1450 1161.5 L 1448 1162.5 L 1437 1203.5 L 1436 1211.5 L 1434.5 1213 L 1417.5 1210 L 1410.5 1207 L 1408.5 1207 L 1381.5 1202 L 1352.5 1194 L 1343.5 1193 L 1326.5 1188 L 1322.5 1188 L 1236.5 1167 L 1227.5 1166 L 1214.5 1162 L 1178.5 1155 L 1174.5 1153 L 1033.5 1124 L 1002.5 1119 L 997.5 1117 L 944.5 1109 L 938.5 1107 L 931.5 1107 L 905.5 1102 L 898.5 1102 L 897.5 1101 L 891.5 1101 L 862.5 1096 L 855.5 1096 L 847.5 1094 L 828.5 1093 L 819.5 1091 L 789.5 1089 L 778.5 1087 L 749.5 1086 L 748.5 1085 L 729.5 1085 L 728.5 1084 L 710.5 1084 L 706.5 1083 L 704.5 1084 L 703.5 1083 L 682 1083 L 683 1076.5 L 683 1058.5 L 684 1056.5 L 682.5 1052 Q 676.7 1065 677 1083 L 672.5 1084 Q 671 1081.5 665.5 1083 Q 664.3 1085.3 663 1082.5 L 665 1051.5 L 666 1050.5 L 665 1048.5 L 666 1047.5 L 666 1034.5 L 664.5 1032 L 662 1036.5 L 659 1050.5 L 656 1083 L 653.5 1084 L 651.5 1084 L 648.5 1083 L 643 1084 L 644 1077.5 L 644 1063.5 L 645 1062.5 L 645 1048.5 L 646 1047.5 L 647 1012 Q 644 1010.8 645 1014.5 L 643 1020.5 L 637 1058.5 L 637 1060.5 L 636 1071.5 L 635 1072.5 L 635 1084 L 625.5 1084 L 624.5 1085 L 623 1081.5 L 624 1080.5 L 624 1070.5 L 626 1059.5 L 627 1030.5 L 628 1029.5 L 628 1016.5 L 629 1015.5 L 629 997.5 L 630 996.5 L 630 994.5 L 629.5 982 L 628 983.5 L 624 1002.5 L 624 1008.5 L 617 1048.5 L 617 1056.5 L 614 1073.5 L 614 1083.5 L 612.5 1085 Q 607.1 1084.4 605 1086 L 607 1058.5 L 608 1057.5 L 608 1047.5 L 609 1046.5 L 611 1006.5 L 613 995.5 L 613 993.5 L 613 984.5 L 615 974.5 L 615 972.5 L 616 956 Q 612.7 954.7 614 959.5 L 604 1005.5 L 601 1033.5 L 598 1048.5 L 598 1055.5 L 597 1056.5 L 595 1083.5 L 594 1084.5 Q 596.3 1085.8 593.5 1087 L 587 1088 L 588 1084.5 L 589 1064.5 L 590 1063.5 L 589 1061.5 L 591 1051.5 L 591 1039.5 L 592 1038.5 L 593 1020.5 L 595 1010.5 L 595 999.5 L 596 998.5 L 597 977.5 L 599 968.5 L 599 957.5 L 600 956.5 L 600 947.5 L 602 938.5 L 603 919.5 L 601 920.5 L 595 945.5 L 595 950.5 L 593 956.5 L 589 986.5 L 587 993.5 L 587 1000.5 L 585 1007.5 L 585 1014.5 L 584 1015.5 L 584 1022.5 L 581 1039.5 L 581 1048.5 L 580 1049.5 L 580 1058.5 L 579 1059.5 L 579 1071.5 L 578 1072.5 L 577 1090 L 570.5 1091 Q 567.8 1089.8 570 1088.5 L 573 1056.5 L 574 1055.5 L 574 1047.5 L 575 1046.5 L 576 1028.5 L 577 1027.5 L 577 1019.5 L 578 1018.5 L 580 988.5 L 581 987.5 L 581 979.5 L 583 969.5 L 583 960.5 L 584 959.5 L 585 942.5 L 588 925.5 L 588 917.5 L 590 911.5 L 590 903.5 L 591 902.5 L 595 868.5 L 597 862.5 L 599 843.5 L 602 831.5 L 602 825.5 L 603 824.5 L 605 807.5 L 607 802.5 L 614 757.5 L 613 757.5 L 606 780.5 L 596 822.5 L 594 837.5 L 591 846.5 L 590 858.5 L 587 869.5 L 583 898.5 L 581 904.5 L 577 937.5 L 573 956.5 L 573 964.5 L 572 965.5 L 572 972.5 L 571 973.5 L 565 1027.5 L 564 1028.5 L 558 1090.5 Q 560.2 1091.8 557.5 1093 L 547.5 1096 L 547 1089.5 L 549 1084.5 L 550 1072.5 L 553 1059.5 L 558 1007.5 L 560 1000.5 L 560 991.5 L 562 983.5 L 562 975.5 L 563 974.5 L 563 967.5 L 564 966.5 L 569 921.5 L 570 920.5 L 570 911.5 L 574 888.5 L 574 881.5 L 578 862.5 L 582 830.5 L 591 787.5 L 591 782.5 L 603 729.5 L 625 660.5 L 645 614.5 L 670 570.5 L 703 526 Q 705.7 527.1 705 524.5 L 717 510 Q 719.7 511.1 719 508.5 Q 763.7 460.7 819.5 424 L 881.5 388 L 946.5 359 L 1026.5 332 L 1105.5 313 L 1110.5 313 L 1115.5 311 L 1145.5 307 L 1152.5 305 L 1180.5 302 L 1181.5 301 L 1190.5 301 L 1191.5 300 L 1229.5 297 L 1230.5 296 L 1241.5 296 L 1242.5 295 Z M 896 395 L 867 409 L 831 430 L 792 457 L 771 475 Q 768 474 769 477 Q 755 486 745 499 Q 742 498 743 501 L 741 501 L 741 503 L 739 503 L 737 507 Q 734 506 735 509 L 733 509 L 701 548 L 673 590 Q 655 620 643 656 L 644 658 Q 671 599 709 552 Q 708 549 711 550 L 713 546 L 731 526 Q 730 523 733 524 L 733 523 L 745 511 Q 744 508 747 509 L 751 503 L 753 503 L 766 490 Q 768 491 767 488 L 795 465 L 832 437 L 898 396 L 896 395 Z M 984 751 L 977 755 L 967 768 L 964 779 L 965 788 L 973 800 L 966 819 L 947 856 L 926 886 L 915 896 Q 912 899 906 898 L 903 896 L 902 892 L 907 869 L 929 810 L 942 772 L 942 767 L 927 767 L 925 766 L 923 766 Q 921 769 916 767 L 910 776 Q 911 780 908 779 L 905 772 Q 901 764 892 763 L 889 762 L 881 762 L 864 768 L 850 779 Q 838 791 830 806 Q 818 828 810 855 Q 803 870 793 882 L 781 891 L 774 890 L 773 888 L 774 874 L 783 851 L 783 848 L 787 841 L 797 815 L 804 788 L 803 774 L 799 766 Q 795 760 788 759 L 778 759 L 763 766 L 743 788 Q 744 790 742 789 L 742 788 L 741 774 L 737 766 L 728 759 L 718 759 L 702 767 Q 690 777 683 792 L 681 793 L 683 786 Q 685 771 680 765 L 677 761 L 670 759 Q 656 760 650 767 Q 636 778 628 795 L 629 799 L 635 802 L 651 782 Q 654 781 655 784 L 655 798 L 653 807 L 618 909 L 620 910 L 646 910 L 647 909 L 671 836 L 686 804 L 695 791 Q 700 784 709 781 L 713 782 L 714 785 L 714 793 L 711 807 L 709 810 L 706 823 L 703 829 L 702 835 L 700 838 L 677 908 L 679 909 L 702 909 L 705 910 L 707 907 L 717 873 L 719 870 L 728 841 L 732 833 L 732 830 L 743 806 L 751 794 L 762 783 L 769 781 L 773 782 L 775 786 L 771 807 L 751 855 L 744 882 Q 742 896 747 904 Q 751 910 759 912 L 771 912 Q 772 909 777 910 L 792 900 Q 800 892 806 882 L 809 880 L 808 883 Q 809 898 816 907 L 825 913 L 834 915 L 843 914 L 850 911 L 864 899 Q 863 896 866 897 L 873 886 L 875 885 L 874 887 Q 872 904 879 913 Q 883 918 891 919 Q 914 919 924 905 Q 926 906 925 903 L 927 903 Q 943 884 956 862 L 986 804 L 997 806 L 999 805 L 1000 806 L 1008 806 L 1009 808 L 995 831 L 981 858 L 973 877 L 970 888 Q 968 907 975 918 Q 980 925 990 927 L 1001 927 L 1011 924 L 1027 914 L 1043 896 L 1044 914 L 1049 925 L 1056 931 L 1065 935 L 1078 935 L 1093 927 Q 1103 919 1109 908 L 1111 907 L 1110 910 Q 1108 926 1113 935 L 1120 941 L 1130 944 L 1144 942 Q 1155 937 1164 929 L 1171 921 L 1177 916 L 1176 925 L 1176 927 L 1175 929 L 1176 936 L 1179 943 L 1187 950 L 1197 954 L 1212 954 L 1220 952 L 1235 943 L 1252 925 Q 1251 922 1254 923 L 1255 940 L 1261 955 L 1274 966 L 1283 970 Q 1289 969 1292 972 L 1310 972 L 1315 971 Q 1328 967 1338 958 Q 1353 944 1363 925 L 1375 893 L 1378 880 L 1378 855 Q 1376 843 1370 836 Q 1361 822 1342 819 L 1325 819 L 1317 821 L 1306 826 L 1299 831 Q 1285 842 1275 858 L 1263 880 L 1254 904 L 1241 921 L 1227 932 L 1219 935 L 1212 934 Q 1206 932 1206 924 L 1206 922 L 1211 906 L 1226 871 L 1230 858 L 1247 821 L 1259 822 L 1271 825 L 1274 824 L 1278 815 L 1278 810 L 1252 806 L 1270 761 L 1269 757 L 1262 757 L 1254 759 L 1242 759 L 1238 760 L 1225 794 L 1221 801 L 1212 799 L 1202 799 L 1196 807 L 1196 811 L 1198 812 Q 1208 813 1215 816 L 1214 822 L 1191 875 L 1177 897 L 1162 915 L 1153 922 L 1145 924 L 1142 923 L 1139 920 L 1139 911 L 1143 898 L 1183 795 L 1182 793 L 1156 792 Q 1151 795 1150 802 L 1147 803 L 1147 801 L 1141 791 L 1135 787 L 1127 785 L 1118 785 L 1106 788 L 1088 799 Q 1075 810 1066 825 L 1043 876 L 1029 895 L 1017 905 L 1008 908 L 1004 907 L 1000 902 L 1001 888 L 1010 864 L 1023 837 L 1042 803 L 1041 794 L 1035 784 L 1031 780 L 1006 788 Q 997 789 994 785 L 994 779 L 998 768 Q 999 759 997 755 Q 994 749 984 751 Z M 1555 796 Q 1552 799 1553 806 L 1570 814 L 1512 944 L 1497 981 L 1495 990 L 1495 1005 L 1501 1015 L 1510 1020 L 1522 1021 L 1523 1022 L 1536 1019 L 1544 1015 L 1567 993 Q 1566 990 1569 991 L 1581 973 L 1579 967 Q 1578 963 1574 964 L 1561 983 L 1544 999 L 1538 1002 L 1530 1002 L 1526 998 L 1527 987 L 1535 966 L 1543 951 L 1544 946 L 1553 928 L 1564 900 L 1566 898 L 1611 800 L 1608 797 L 1606 798 L 1578 798 L 1577 797 L 1575 798 L 1574 797 L 1555 796 Z M 1454 845 L 1447 847 L 1442 847 L 1432 851 L 1419 860 Q 1387 888 1378 939 L 1378 961 Q 1380 962 1379 967 L 1388 985 Q 1397 995 1414 998 L 1432 998 L 1441 996 Q 1455 991 1465 981 Q 1494 952 1503 903 L 1503 885 Q 1500 882 1501 876 L 1495 864 Q 1487 853 1474 847 L 1466 845 L 1454 845 Z M 1415 1172 L 1412 1181 L 1407 1205 L 1410 1206 L 1412 1204 L 1414 1197 L 1416 1186 L 1416 1176 L 1417 1175 Q 1418 1171 1415 1172 Z M 1383 1175 L 1378 1190 Q 1377 1194 1381 1192 L 1383 1183 L 1383 1175 Z " /><path fill="rgb(248,246,234)" stroke="rgb(248,246,234)" stroke-width="0" opacity="1" d="M 1473.5 319 L 1512.5 337 L 1545.5 357 L 1582.5 384 L 1615.5 415 L 1617 415 L 1617 416.5 L 1635 435.5 L 1665 474.5 L 1690 516.5 L 1705 550.5 L 1707 552.5 L 1721 588.5 L 1732 622.5 L 1737 644.5 L 1739 647.5 L 1740 656.5 L 1742.5 660 L 1743 656.5 L 1741 649.5 L 1739 631.5 L 1727 583.5 L 1707 531.5 L 1691 499.5 L 1668 462.5 L 1642 428.5 L 1623 408.5 L 1623 407 Q 1620.3 408.1 1621 405.5 L 1615 401 L 1611.5 396 L 1589 377.5 L 1590.5 378 L 1594.5 379 L 1639.5 406 L 1666.5 426 L 1667 424.5 Q 1646 403 1620.5 386 Q 1587.5 364 1550 346.5 L 1551.5 346 L 1604.5 365 L 1646.5 383 L 1648.5 385 L 1680.5 399 L 1732.5 428 L 1733 426 L 1705.5 406 L 1660.5 380 L 1606.5 355 L 1561 337.5 L 1563.5 337 L 1566.5 339 L 1588.5 345 L 1636.5 362 L 1690.5 384 L 1760.5 420 L 1825.5 461 L 1820.5 455 L 1817.5 453 L 1778.5 423 Q 1740.5 398 1698.5 377 L 1668.5 363 L 1619.5 343 L 1560 323.5 L 1563.5 323 L 1600.5 333 L 1664.5 354 L 1718.5 376 L 1765.5 399 Q 1808.9 422.1 1848.5 449 Q 1890 477.5 1926 511.5 Q 1925.3 513.8 1927.5 513 Q 1949.8 532.6 1967 556 Q 1969.7 554.9 1969 557.5 Q 1985.6 574.9 1999 595.5 L 2030 646.5 L 2051 689.5 L 2060 711.5 L 2060 714.5 L 2069 735.5 L 2077 761.5 L 2077 765.5 L 2085 793.5 L 2093 832.5 L 2093 838.5 L 2097 856.5 L 2098 871.5 L 2099 872.5 L 2102 901.5 L 2104 909.5 L 2104 917.5 L 2105 918.5 L 2105 929.5 L 2107 940.5 L 2107 955.5 L 2108 956.5 L 2108 974.5 L 2109 975.5 L 2109 1003.5 L 2110 1004.5 L 2110 1071.5 L 2110 1073.5 L 2109 1075.5 L 2109 1107.5 L 2108 1108.5 L 2108 1124.5 L 2107 1125.5 L 2108 1127.5 L 2107 1128.5 L 2107 1140.5 L 2106 1141.5 L 2106 1143.5 L 2106 1156.5 L 2105 1157.5 L 2106 1159.5 L 2105 1160.5 L 2105 1175.5 L 2104 1176.5 L 2104 1188.5 L 2103 1189.5 L 2101 1217.5 L 2089.5 1230 L 2089 1227.5 L 2090 1226.5 L 2090 1217.5 L 2091 1216.5 L 2091 1207.5 L 2093 1196.5 L 2093 1184.5 L 2094 1183.5 L 2094 1168.5 L 2095 1167.5 L 2095 1154.5 L 2096 1153.5 L 2096 1135.5 L 2097 1134.5 L 2097 1099.5 L 2098 1098.5 L 2097 1093.5 L 2098 1090.5 L 2097 1088.5 L 2098 1087.5 L 2098 1063.5 L 2098 1061.5 L 2097 1045.5 L 2097 1043.5 L 2097 1015.5 L 2096 1014.5 L 2097 1012.5 L 2096 1011.5 L 2096 992.5 L 2095 991.5 L 2093 949.5 L 2092 948.5 L 2091 927.5 L 2090 926.5 L 2087 890.5 L 2082 864.5 L 2081 851.5 L 2075 824.5 L 2075 818.5 L 2073 813.5 L 2069 790.5 L 2065 778.5 L 2065 774.5 L 2047 719.5 L 2023 666.5 L 2001 629.5 L 1981.5 604 L 1981 605.5 L 2000 635.5 L 2021 676.5 L 2031 699.5 L 2047 744.5 L 2058 785.5 L 2066 824.5 L 2066 830.5 L 2069 840.5 L 2069 847.5 L 2074 874.5 L 2078 916.5 L 2079 917.5 L 2079 926.5 L 2080 927.5 L 2080 929.5 L 2081 949.5 L 2082 950.5 L 2082 964.5 L 2083 965.5 L 2084 1009.5 L 2085 1010.5 L 2085 1043.5 L 2086 1044.5 Q 2083.8 1045.8 2085 1050.5 L 2085 1052.5 L 2086 1055.5 L 2085 1059.5 L 2086 1061.5 L 2085 1065.5 L 2085 1067.5 L 2086 1073.5 L 2085 1074.5 L 2085 1116.5 L 2084 1117.5 L 2085 1119.5 L 2084 1120.5 L 2084 1144.5 L 2083 1145.5 L 2083 1163.5 L 2082 1164.5 L 2080 1202.5 L 2079 1203.5 L 2076 1230.5 L 2074 1239 L 2070.5 1240 L 2071 1238.5 L 2071 1231.5 L 2073 1222.5 L 2073 1212.5 L 2074 1211.5 L 2074 1209.5 L 2075 1182.5 L 2076 1181.5 L 2076 1163.5 L 2077 1162.5 L 2077 1119.5 L 2078 1118.5 L 2077 1115.5 L 2078 1113.5 L 2078 1111.5 L 2077 1108.5 L 2078 1106.5 L 2077 1104.5 Q 2079.8 1102.7 2078 1096.5 L 2077 1093.5 L 2077 1091.5 L 2078 1088.5 L 2077 1087.5 L 2077 1048.5 L 2076 1047.5 L 2077 1045.5 L 2076 1044.5 L 2076 1028.5 L 2075 1027.5 L 2073 982.5 L 2072 981.5 L 2072 979.5 L 2070 950.5 L 2069 949.5 L 2069 941.5 L 2067 932.5 L 2068 930.5 L 2063 901.5 L 2063 894.5 L 2061 889.5 L 2061 881.5 L 2052 836.5 L 2045 809.5 L 2036.5 786 L 2036 788.5 L 2046 833.5 L 2046 839.5 L 2049 852.5 L 2049 859.5 L 2053 879.5 L 2055 904.5 L 2057 913.5 L 2060 961.5 L 2061 962.5 L 2060 964.5 L 2061 965.5 L 2062 1006.5 L 2063 1007.5 L 2063 1033.5 L 2064 1035.5 L 2064 1037.5 L 2064 1139.5 L 2063 1140.5 L 2063 1163.5 L 2062 1164.5 L 2063 1166.5 L 2062 1167.5 L 2062 1186.5 L 2061 1187.5 L 2060 1215.5 L 2059 1216.5 L 2059 1227.5 L 2058 1228.5 L 2058 1241.5 L 2055.5 1247 L 2049.5 1250 Q 2046.8 1248.8 2049 1247.5 L 2051 1216.5 L 2052 1215.5 L 2052 1202.5 L 2053 1201.5 L 2053 1186.5 L 2054 1185.5 L 2054 1183.5 L 2054 1164.5 L 2055 1163.5 L 2054 1161.5 L 2055 1160.5 L 2055 1135.5 L 2056 1133.5 L 2055 1131.5 L 2056 1130.5 L 2056 1092.5 L 2055 1090.5 L 2056 1088.5 L 2055 1083.5 L 2055 1081.5 L 2055 1049.5 L 2054 1047.5 L 2054 1045.5 L 2053 1014.5 L 2052 1013.5 L 2052 1002.5 L 2051 1001.5 L 2052 999.5 L 2051 998.5 L 2049 970.5 L 2047 962.5 L 2041 908.5 L 2037 889 L 2035 889.5 L 2036 890.5 L 2036 902.5 L 2038 911.5 L 2038 926.5 L 2039 927.5 L 2039 939.5 L 2040 940.5 L 2041 965.5 L 2042 966.5 L 2041 969.5 L 2042 970.5 L 2043 1007.5 L 2044 1010.5 L 2043 1012.5 L 2044 1013.5 L 2044 1055.5 L 2045 1058.5 L 2045 1060.5 L 2044 1062.5 L 2045 1063.5 L 2045 1075.5 L 2045 1077.5 Q 2046.2 1082.2 2044 1083.5 Q 2046.8 1085.2 2045 1091.5 L 2044 1095.5 L 2044 1097.5 L 2044 1128.5 L 2043 1129.5 L 2043 1151.5 L 2042 1152.5 L 2042 1168.5 L 2041 1169.5 L 2041 1171.5 L 2041 1188.5 L 2040 1189.5 L 2040 1191.5 L 2040 1204.5 L 2039 1205.5 L 2037 1242.5 L 2036 1243.5 L 2036 1251.5 L 2034.5 1253 L 2027 1256 L 2028 1252.5 L 2031 1211.5 L 2032 1209.5 L 2032 1205.5 L 2033 1173.5 L 2034 1172.5 L 2034 1170.5 L 2035 1099.5 L 2036 1098.5 L 2035 1097.5 L 2035 1077.5 L 2035 1075.5 L 2035 1051.5 L 2034 1050.5 L 2033 1018.5 L 2032 1017.5 L 2029 975.5 L 2025.5 960 L 2025 966.5 L 2026 967.5 L 2027 1017.5 L 2028 1018.5 Q 2025.5 1020 2027 1025.5 L 2028 1026.5 L 2028 1037.5 L 2028 1039.5 L 2028 1072.5 L 2027 1073.5 L 2028 1075.5 L 2027 1076.5 L 2027 1104.5 L 2026 1106.5 L 2026 1108.5 L 2027 1110.5 L 2026 1111.5 L 2026 1127.5 L 2025 1128.5 L 2025 1130.5 L 2026 1132.5 L 2025 1133.5 L 2025 1146.5 L 2024 1147.5 L 2025 1149.5 L 2024 1150.5 L 2023 1181.5 L 2022 1182.5 L 2022 1194.5 L 2021 1195.5 L 2021 1207.5 L 2020 1208.5 L 2018 1242.5 L 2017 1243.5 L 2016 1257.5 L 2014.5 1259 L 2004 1262 L 2006 1255.5 L 2008 1221.5 L 2010 1210.5 L 2010 1208.5 L 2011 1185.5 L 2012 1184.5 L 2011 1182.5 L 2012 1181.5 L 2012 1165.5 L 2013 1162.5 L 2013 1160.5 L 2013 1078.5 L 2012 1076.5 L 2012 1074.5 Q 2013.9 1062.1 2010.5 1055 L 2009 1058.5 L 2008 1096.5 L 2007 1097.5 L 2007 1099.5 L 2006 1133.5 L 2005 1134.5 L 2004 1162.5 L 2003 1163.5 L 2003 1175.5 L 2002 1176.5 L 2002 1188.5 L 2001 1189.5 L 1998 1249.5 L 1997 1250.5 L 1997 1262.5 L 1994.5 1265 L 1984.5 1268 L 1979.5 1268 L 1980 1266.5 L 1983 1252.5 L 1983 1246.5 L 1985 1240.5 L 1985 1232.5 L 1986 1231.5 L 1986 1221.5 L 1988 1210.5 L 1988 1195.5 L 1989 1194.5 L 1989 1173.5 L 1990 1172.5 L 1990 1170.5 L 1989 1166.5 L 1990 1165.5 L 1990 1130.5 L 1989 1129.5 L 1989 1113 L 1987 1113.5 L 1987 1122.5 L 1986 1123.5 L 1985 1144.5 L 1983 1154.5 L 1984 1156.5 L 1982 1164.5 L 1982 1174.5 L 1981 1175.5 L 1980 1194.5 L 1978 1204.5 L 1978 1217.5 L 1977 1218.5 L 1977 1229.5 L 1976 1230.5 L 1976 1245.5 L 1975 1246.5 L 1974 1268.5 L 1980.5 1271 L 1998.5 1271 L 2004.5 1269 L 2022.5 1267 L 2026.5 1265 L 2030.5 1265 L 2057.5 1258 L 2071.5 1253 L 2098 1239 Q 2095.5 1250.2 2087.5 1257 L 2070.5 1267 L 2055.5 1273 L 2026.5 1282 L 1990.5 1290 L 1984.5 1290 L 1983.5 1291 L 1944.5 1296 L 1943.5 1297 L 1934.5 1297 L 1933.5 1298 L 1906.5 1300 L 1896.5 1302 L 1887.5 1302 L 1886.5 1303 L 1877.5 1303 L 1876.5 1304 L 1849.5 1305 L 1848.5 1306 L 1814.5 1306 Q 1813 1308.5 1807.5 1307 L 1806.5 1306 L 1790.5 1306 L 1789.5 1305 L 1768.5 1304 L 1767.5 1303 L 1758.5 1303 L 1757.5 1302 L 1739.5 1301 L 1738.5 1300 L 1728.5 1300 L 1725 1299 L 1727 1283 L 1738.5 1285 L 1745.5 1285 L 1746.5 1286 L 1762.5 1287 L 1763.5 1288 L 1773.5 1288 L 1774.5 1289 L 1789.5 1289 L 1790.5 1290 L 1840.5 1290 L 1842.5 1290 L 1845.5 1289 L 1847.5 1289 L 1862.5 1289 L 1863.5 1288 L 1885.5 1287 L 1886.5 1286 L 1910.5 1283 L 1918 1279.5 Q 1918.8 1277.3 1916.5 1278 L 1913.5 1279 L 1910 1278 L 1915 1263.5 L 1915 1258.5 L 1917 1251.5 L 1917 1243.5 L 1919 1235.5 L 1919 1224.5 L 1921 1213.5 L 1921 1170.5 L 1920 1170.5 L 1917 1191.5 L 1915 1196.5 L 1914 1210.5 L 1913 1211.5 L 1910 1248.5 L 1909 1249.5 L 1909 1259.5 L 1908 1260.5 L 1908 1275.5 L 1906.5 1277 L 1903.5 1278 L 1891 1278 L 1894 1263.5 L 1896 1237.5 L 1898 1227.5 L 1899 1199.5 L 1900 1198.5 L 1900 1161.5 L 1899 1161.5 L 1894 1188.5 L 1894 1190.5 L 1893 1203.5 L 1890 1218.5 L 1890 1226.5 L 1886 1248.5 L 1886 1255.5 L 1884 1262.5 L 1883 1278 L 1868.5 1278 Q 1867.5 1278 1868 1273.5 L 1869 1272.5 L 1869 1264.5 L 1870 1263.5 L 1870 1257.5 L 1872 1249.5 L 1872 1240.5 L 1874 1232.5 L 1874 1230.5 L 1874 1222.5 L 1875 1221.5 L 1875 1219.5 L 1876 1189.5 L 1877 1188.5 L 1877 1147.5 L 1876 1147.5 L 1871 1175.5 L 1868 1204.5 L 1867 1205.5 L 1866 1222.5 L 1864 1230.5 L 1864 1239.5 L 1863 1240.5 L 1863 1248.5 L 1862 1249.5 L 1862 1257.5 L 1860 1267.5 L 1860 1276.5 L 1858.5 1278 L 1843.5 1278 L 1843 1276.5 L 1845 1270.5 L 1846 1256.5 L 1848 1250.5 L 1847 1248.5 L 1848 1247.5 L 1850 1223.5 L 1852 1214.5 L 1852 1203.5 L 1853 1202.5 L 1853 1191.5 L 1854 1190.5 L 1854 1170.5 L 1855 1169.5 L 1855 1147.5 L 1856 1145.5 L 1856 1143.5 Q 1857.9 1129.1 1854.5 1120 L 1852 1131.5 L 1851 1149.5 L 1850 1150.5 L 1848 1173.5 L 1846 1181.5 L 1846 1183.5 L 1834 1274.5 L 1834 1276.5 L 1833.5 1278 L 1824.5 1278 L 1822.5 1278 L 1821 1277.5 L 1822 1276.5 L 1825 1244.5 L 1827 1236.5 L 1829 1208.5 L 1830 1207.5 L 1830 1205.5 L 1830 1197.5 L 1832 1187.5 L 1832 1185.5 Q 1830.7 1178.7 1833 1175.5 L 1833 1173.5 L 1833 1164.5 L 1834 1163.5 L 1833 1161.5 L 1835 1150.5 L 1835 1148.5 L 1837 1085.5 L 1835 1084.5 L 1835 1090.5 L 1830 1119.5 L 1830 1126.5 L 1829 1127.5 L 1825 1161.5 L 1823 1168.5 L 1822 1184.5 L 1820 1191.5 L 1817 1219.5 L 1815 1227.5 L 1813 1251.5 L 1811 1259.5 L 1811 1269.5 Q 1808.5 1271 1810 1276.5 L 1808.5 1278 L 1800 1278 L 1800 1269.5 L 1802 1260.5 L 1803 1242.5 L 1804 1241.5 L 1805 1224.5 L 1806 1223.5 L 1806 1214.5 L 1807 1213.5 L 1807 1205.5 L 1808 1204.5 L 1808 1196.5 L 1810 1188.5 L 1810 1179.5 L 1811 1178.5 L 1812 1160.5 L 1813 1159.5 L 1813 1157.5 L 1816 1113.5 L 1817 1112.5 L 1817 1099.5 L 1818 1098.5 L 1818 1083.5 L 1819 1081.5 L 1819 1079.5 L 1819 1061.5 L 1820 1060.5 L 1820 1058.5 L 1819.5 1042 L 1818 1044.5 L 1818 1050.5 L 1816 1057.5 L 1816 1063.5 L 1815 1064.5 L 1815 1070.5 L 1810 1099.5 L 1810 1107.5 L 1808 1115.5 L 1808 1123.5 L 1806 1131.5 L 1806 1138.5 L 1800 1172.5 L 1800 1179.5 L 1799 1180.5 L 1799 1187.5 L 1795 1209.5 L 1794 1224.5 L 1791 1237.5 L 1791 1245.5 L 1789 1252.5 L 1786 1277 Q 1779.2 1278.1 1776 1274.5 L 1778 1265.5 L 1778 1257.5 L 1779 1256.5 L 1780 1240.5 L 1782 1231.5 L 1782 1222.5 L 1784 1213.5 L 1784 1204.5 L 1785 1203.5 L 1785 1194.5 L 1786 1193.5 L 1787 1177.5 L 1788 1176.5 L 1789 1157.5 L 1791 1147.5 L 1791 1145.5 L 1792 1125.5 L 1794 1114.5 L 1794 1102.5 L 1795 1101.5 L 1795 1091.5 L 1796 1090.5 L 1796 1079.5 L 1797 1078.5 L 1798 1051.5 L 1799 1050.5 L 1801 987.5 L 1802 986.5 L 1801 984.5 L 1802 981.5 L 1801 979.5 L 1802 978.5 L 1802 951.5 L 1803 950.5 L 1801 949.5 L 1800 965.5 L 1796 988.5 L 1795 1010.5 L 1793 1018.5 L 1793 1029.5 L 1791 1038.5 L 1789 1065.5 L 1787 1072.5 L 1787 1081.5 L 1785 1090.5 L 1784 1107.5 L 1782 1115.5 L 1780 1139.5 L 1779 1140.5 L 1776 1171.5 L 1773 1186.5 L 1773 1194.5 L 1770 1211.5 L 1770 1220.5 L 1768 1228.5 L 1768 1235.5 L 1767 1236.5 L 1767 1243.5 L 1766 1244.5 L 1763 1274 L 1752 1273 L 1755 1254.5 L 1756 1237.5 L 1758 1230.5 L 1758 1222.5 L 1761 1205.5 L 1763 1180.5 L 1765 1172.5 L 1765 1163.5 L 1766 1162.5 L 1766 1153.5 L 1767 1152.5 L 1767 1143.5 L 1768 1142.5 L 1768 1134.5 L 1770 1125.5 L 1770 1113.5 L 1772 1102.5 L 1773 1078.5 L 1774 1077.5 L 1773 1074.5 L 1774 1073.5 L 1775 1053.5 L 1776 1052.5 L 1776 1038.5 L 1778 1027.5 L 1780 975.5 L 1781 974.5 L 1781 954.5 L 1782 953.5 L 1781 950.5 L 1782 949.5 L 1782 876.5 L 1781 875.5 L 1781 869 L 1779 869.5 L 1779 884.5 L 1778 885.5 L 1778 903.5 L 1777 905.5 L 1777 907.5 L 1777 921.5 L 1776 922.5 L 1776 924.5 L 1777 928.5 L 1776 929.5 L 1776 946.5 L 1775 947.5 L 1773 990.5 L 1772 991.5 L 1772 1002.5 L 1771 1003.5 L 1767 1051.5 L 1765 1060.5 L 1761 1102.5 L 1760 1103.5 L 1757 1130.5 L 1755 1137.5 L 1753 1162.5 L 1751 1169.5 L 1751 1176.5 L 1746 1204.5 L 1746 1212.5 L 1743 1226.5 L 1743 1228.5 L 1741 1251.5 L 1740 1252.5 L 1739 1267.5 L 1738 1271 L 1730 1270 L 1733 1239.5 L 1734 1238.5 L 1735 1221.5 L 1736 1220.5 L 1736 1212.5 L 1737 1211.5 L 1737 1203.5 L 1738 1202.5 L 1738 1193.5 L 1740 1184.5 L 1741 1165.5 L 1742 1164.5 L 1743 1148.5 L 1745 1140.5 L 1745 1131.5 L 1747 1122.5 L 1748 1102.5 L 1749 1101.5 L 1749 1093.5 L 1751 1083.5 L 1751 1073.5 L 1752 1072.5 L 1752 1064.5 L 1753 1063.5 L 1753 1055.5 L 1755 1045.5 L 1755 1034.5 L 1757 1024.5 L 1756 1022.5 L 1757 1021.5 L 1758 1004.5 L 1759 1003.5 L 1759 1001.5 L 1759 990.5 L 1760 989.5 L 1760 979.5 L 1761 978.5 L 1761 963.5 L 1762 962.5 L 1762 947.5 L 1763 945.5 L 1763 943.5 L 1763 918.5 L 1764 917.5 L 1763 915.5 L 1764 912.5 L 1764 910.5 L 1764 843.5 L 1763 842.5 L 1762 800.5 L 1761 799.5 L 1761 789.5 L 1760 788.5 L 1760 778.5 L 1759 777.5 L 1757 753.5 L 1754 738.5 L 1754 730.5 L 1748 697 L 1746 697.5 L 1747 698.5 L 1747 708.5 L 1748 709.5 L 1750 737.5 L 1752 747.5 L 1753 773.5 L 1754 774.5 L 1754 790.5 L 1755 791.5 L 1756 884.5 L 1756 886.5 L 1755 889.5 L 1755 891.5 L 1755 915.5 L 1754 916.5 L 1754 935.5 L 1753 937.5 L 1753 939.5 L 1751 980.5 L 1749 991.5 L 1749 1002.5 L 1748 1003.5 L 1748 1013.5 L 1747 1014.5 L 1747 1025.5 L 1746 1026.5 L 1744 1055.5 L 1743 1056.5 L 1743 1064.5 L 1741 1074.5 L 1741 1084.5 L 1739 1093.5 L 1739 1102.5 L 1738 1103.5 L 1736 1128.5 L 1735 1129.5 L 1732 1167.5 L 1731 1168.5 L 1729 1191.5 L 1727 1199.5 L 1724 1232.5 L 1721 1246.5 L 1719 1266.5 L 1717.5 1268 L 1701.5 1266 L 1696 1263.5 L 1700 1227.5 L 1701 1226.5 L 1701 1219.5 L 1702 1218.5 L 1702 1208.5 L 1703 1207.5 L 1708 1155.5 L 1710 1146.5 L 1711 1129.5 L 1712 1128.5 L 1712 1119.5 L 1713 1118.5 L 1713 1110.5 L 1715 1100.5 L 1715 1089.5 L 1716 1088.5 L 1718 1060.5 L 1719 1059.5 L 1719 1049.5 L 1720 1048.5 L 1720 1038.5 L 1721 1037.5 L 1721 1035.5 L 1723 1003.5 L 1724 1002.5 L 1724 990.5 L 1725 989.5 L 1725 979.5 L 1726 978.5 L 1725 976.5 L 1726 975.5 L 1726 965.5 L 1727 964.5 L 1728 933.5 L 1729 932.5 L 1729 911.5 L 1730 910.5 L 1729 908.5 L 1730 907.5 L 1730 865.5 L 1731 862.5 L 1731 860.5 L 1730 857.5 L 1731 854.5 Q 1732.3 849.7 1730 848.5 L 1730 844.5 L 1731 839.5 L 1731 837.5 L 1730 833.5 L 1730 809.5 L 1729 808.5 L 1729 806.5 L 1729 791.5 L 1727 780.5 L 1726 752.5 L 1725 751.5 L 1723 724.5 L 1718 698.5 L 1717 685.5 L 1705 628.5 L 1692 582.5 L 1672 533.5 L 1651 493.5 Q 1629.2 457.1 1603 426 Q 1600.3 427.1 1601 424.5 L 1579 401.5 L 1579 400 L 1577.5 400 L 1552.5 376 L 1523.5 353 Q 1501.1 334.9 1474.5 321 L 1473.5 319 Z M 1837 546 L 1830 549 Q 1823 553 1822 562 L 1822 572 L 1825 583 Q 1831 596 1840 607 Q 1849 618 1866 622 Q 1876 624 1881 619 Q 1887 615 1889 606 L 1889 596 L 1885 583 Q 1879 568 1869 559 Q 1866 560 1867 557 L 1853 548 Q 1847 545 1837 546 Z M 1980 602 L 1981 604 Q 1982 601 1980 602 Z M 1965 1148 L 1963 1154 L 1962 1171 L 1961 1172 L 1961 1180 L 1960 1181 L 1959 1202 L 1956 1218 L 1956 1230 L 1955 1231 L 1955 1243 L 1954 1244 L 1953 1260 L 1953 1262 L 1951 1271 L 1954 1274 L 1958 1273 L 1962 1252 L 1962 1243 L 1964 1234 L 1964 1222 L 1965 1221 L 1965 1205 L 1966 1204 L 1966 1150 L 1965 1148 Z M 1942 1186 L 1937 1204 L 1934 1229 L 1934 1231 L 1932 1240 L 1932 1248 L 1931 1249 L 1931 1270 L 1935 1270 L 1940 1243 L 1941 1219 L 1942 1217 L 1942 1215 L 1942 1186 Z " /><path fill="rgb(248,246,234)" stroke="rgb(248,246,234)" stroke-width="0" opacity="1" d="M 1845 569 Q 1854.3 571.1 1859 579.5 L 1866 591.5 L 1867 598 L 1865.5 598 L 1856 588.5 L 1845 569 Z " /><path fill="rgb(248,246,234)" stroke="rgb(248,246,234)" stroke-width="0" opacity="1" d="M 885.5 779 Q 893.8 778 897 781 L 899 784.5 L 901 794.5 L 897 815.5 L 883 848.5 Q 872.8 872.8 855.5 890 L 849.5 893 L 846.5 893 L 841 889.5 L 839 885.5 L 839 869.5 L 844 847.5 L 853 821.5 L 863 801.5 L 875 785 L 877 785 Q 875.9 782.3 878.5 783 L 885.5 779 Z " /><path fill="rgb(248,246,234)" stroke="rgb(248,246,234)" stroke-width="0" opacity="1" d="M 1122.5 802 Q 1134.3 800.2 1137 807.5 L 1138 809.5 L 1138 826.5 L 1125 862.5 L 1116 880.5 Q 1106.2 898.2 1091.5 911 Q 1087.9 913.9 1080.5 913 L 1077 910.5 Q 1072.1 902.9 1074 888.5 Q 1084.3 842 1109 811 L 1111 811 L 1111 809 L 1113 809 Q 1111.9 806.3 1114.5 807 L 1122.5 802 Z " /><path fill="rgb(248,246,234)" stroke="rgb(248,246,234)" stroke-width="0" opacity="1" d="M 1334.5 835 Q 1345.6 833.4 1349 839.5 L 1352 847.5 L 1352 858.5 L 1348 878.5 L 1333 916.5 L 1321 937.5 L 1307.5 952 Q 1302.3 956.4 1291.5 955 L 1285 949.5 L 1282 940.5 L 1282 929.5 Q 1292 874.5 1323.5 841 L 1334.5 835 Z " /><path fill="rgb(248,246,234)" stroke="rgb(248,246,234)" stroke-width="0" opacity="1" d="M 1458.5 861 L 1465.5 861 L 1473 866.5 Q 1477.8 873.7 1476 887.5 L 1474 893.5 L 1474 898.5 L 1466 922.5 L 1447 958.5 L 1431.5 977 Q 1426.8 982.3 1415.5 981 L 1409 976.5 L 1406 970.5 L 1406 952.5 Q 1413.6 918.1 1429 891.5 Q 1438.1 875.6 1451.5 864 L 1458.5 861 Z " /><path fill="rgb(248,246,234)" stroke="rgb(248,246,234)" stroke-width="0" opacity="1" d="M 635.5 1095 L 637.5 1095 L 729.5 1095 L 730.5 1096 L 749.5 1096 L 750.5 1097 L 752.5 1096 L 753.5 1097 L 764.5 1097 L 765.5 1098 L 767.5 1098 L 779.5 1098 L 790.5 1100 L 814.5 1101 L 815.5 1102 L 840.5 1104 L 848.5 1106 L 864.5 1107 L 871.5 1109 L 878.5 1109 L 879.5 1110 L 886.5 1110 L 893.5 1112 L 927.5 1116 L 951.5 1121 L 968.5 1123 L 974.5 1125 L 985.5 1126 L 996.5 1129 L 1013.5 1131 L 1018.5 1133 L 1024.5 1133 L 1075.5 1144 L 1080.5 1144 L 1146.5 1159 L 1160.5 1161 L 1209.5 1173 L 1218.5 1174 L 1290.5 1192 L 1311.5 1196 L 1327.5 1201 L 1340.5 1203 L 1361.5 1209 L 1374.5 1211 L 1399.5 1218 Q 1420.2 1220.8 1437.5 1227 L 1446.5 1228 L 1467.5 1234 L 1472.5 1234 L 1489.5 1239 L 1494.5 1239 L 1511.5 1244 L 1520.5 1245 L 1525.5 1247 L 1534.5 1248 L 1539.5 1250 L 1548.5 1251 L 1587.5 1260 L 1592.5 1260 L 1603.5 1263 L 1609.5 1263 L 1633 1268 L 1631 1285.5 L 1629.5 1287 L 1612.5 1285 L 1590.5 1280 L 1579.5 1279 L 1574.5 1277 L 1563.5 1276 L 1558.5 1274 Q 1546.8 1273.7 1538.5 1270 L 1532.5 1270 L 1522.5 1267 L 1517.5 1267 L 1478.5 1258 L 1454.5 1254 L 1450.5 1252 L 1432.5 1249 L 1369.5 1234 L 1360.5 1233 L 1334.5 1226 L 1324.5 1225 L 1320.5 1223 L 1299.5 1219 L 1295.5 1217 L 1287.5 1216 L 1258.5 1208 L 1254.5 1208 L 1241.5 1204 L 1202.5 1196 L 1198.5 1194 L 1163.5 1187 L 1151.5 1183 L 1125.5 1178 L 1116.5 1175 L 1111.5 1175 L 1093.5 1170 L 1084.5 1169 L 1080.5 1167 L 1074.5 1167 L 1060.5 1163 L 1055.5 1163 L 1050.5 1161 L 1030.5 1158 L 1026.5 1156 L 1005.5 1153 L 976.5 1146 L 971.5 1146 L 932.5 1138 L 908.5 1135 L 902.5 1133 L 896.5 1133 L 889.5 1131 L 883.5 1131 L 882.5 1130 L 876.5 1130 L 847.5 1125 L 840.5 1125 L 832.5 1123 L 824.5 1123 L 823.5 1122 L 816.5 1122 L 815.5 1121 L 800.5 1120 L 799.5 1119 L 792.5 1119 L 775.5 1116 L 744.5 1114 L 743.5 1113 L 741.5 1114 L 740.5 1113 L 727.5 1113 L 726.5 1112 L 715.5 1112 L 714.5 1111 L 695.5 1111 L 694.5 1110 L 616.5 1110 L 614.5 1110 L 611.5 1111 L 596.5 1111 L 595.5 1112 L 580.5 1112 L 579.5 1113 L 559.5 1114 L 550.5 1116 L 541.5 1116 L 542 1114.5 L 542 1111.5 L 544 1108 L 566.5 1102 L 595.5 1099 L 596.5 1098 L 618.5 1097 L 619.5 1096 L 634.5 1096 L 635.5 1095 Z " /><path fill="rgb(248,246,234)" stroke="rgb(248,246,234)" stroke-width="0" opacity="1" d="M 634.5 1140 L 637.5 1141 L 642.5 1140 L 640.5 1143 Q 617.7 1159.2 600 1180.5 Q 599.3 1182.8 601.5 1182 L 656.5 1140 L 667.5 1140 L 665.5 1143 L 657 1149.5 L 655 1152.5 L 647 1162.5 L 648.5 1162 L 678.5 1140 L 690.5 1140 L 691.5 1141 L 734.5 1142 L 735.5 1143 L 747.5 1143 L 748.5 1144 L 782.5 1146 L 791.5 1148 L 801.5 1148 L 802.5 1149 L 809.5 1149 L 810.5 1150 L 855.5 1155 L 868.5 1158 L 881.5 1159 L 888.5 1161 L 894.5 1161 L 895.5 1162 L 930.5 1167 L 935.5 1169 L 974.5 1175 L 979.5 1177 L 1004.5 1181 L 1009.5 1183 L 1014.5 1183 L 1053.5 1192 L 1058.5 1192 L 1063.5 1194 L 1077.5 1196 L 1174.5 1219 L 1187.5 1221 L 1229.5 1232 L 1238.5 1233 L 1246.5 1236 L 1250.5 1236 L 1287.5 1245 L 1289 1246.5 Q 1289.8 1248.8 1287.5 1248 L 1255 1269.5 L 1256.5 1270 L 1296.5 1248 L 1301.5 1248 L 1313 1251 L 1311.5 1254 Q 1285.5 1269.5 1264 1289.5 L 1265.5 1290 L 1300.5 1270 L 1316.5 1260 L 1321.5 1255 L 1325.5 1254 L 1340 1257.5 Q 1296.7 1292.7 1246 1320.5 L 1248.5 1321 L 1286.5 1303 L 1331.5 1276 L 1351.5 1261 L 1356.5 1261 L 1365 1263 Q 1366.1 1265.7 1363.5 1265 L 1335.5 1287 L 1294.5 1314 L 1225 1350.5 L 1226.5 1351 L 1269.5 1334 L 1301.5 1318 L 1346.5 1291 L 1380.5 1267 L 1392.5 1270 L 1394 1271.5 L 1370.5 1290 L 1325.5 1320 Q 1294.7 1339.2 1259.5 1354 L 1227.5 1365 L 1194.5 1372 L 1185.5 1372 L 1184.5 1373 L 1136.5 1373 L 1135.5 1372 L 1109.5 1369 L 1066.5 1359 L 1053.5 1354 L 1034.5 1349 L 1031.5 1347 L 1024.5 1346 L 976.5 1329 L 941.5 1319 L 941.5 1320 L 988.5 1339 L 1004.5 1344 L 1014.5 1349 L 1078.5 1370 L 1129.5 1381 L 1159.5 1383 L 1161.5 1383 L 1169.5 1383 L 1170.5 1382 L 1172.5 1382 L 1185.5 1382 L 1186.5 1381 L 1196.5 1381 L 1197.5 1380 L 1210.5 1379 L 1252.5 1367 L 1279.5 1355 L 1284.5 1354 Q 1354.1 1319.6 1412.5 1274 L 1426 1277 L 1424.5 1280 L 1377.5 1316 L 1349.5 1335 L 1325.5 1349 L 1268 1377.5 L 1270.5 1378 L 1312.5 1361 L 1349.5 1343 L 1389.5 1320 Q 1416 1303 1439.5 1283 Q 1440.9 1280.4 1445.5 1281 L 1462 1285.5 Q 1424.3 1316.8 1382.5 1344 Q 1347.4 1366.4 1306.5 1383 L 1272.5 1395 L 1232.5 1404 L 1225.5 1404 L 1217.5 1406 L 1207.5 1406 L 1206.5 1407 L 1151.5 1407 L 1150.5 1406 L 1140.5 1406 L 1139.5 1405 L 1131.5 1405 L 1118.5 1402 L 1112.5 1402 L 1059.5 1389 L 1033.5 1381 L 998.5 1367 L 869.5 1321 L 866.5 1321 L 826.5 1307 L 770.5 1291 L 727.5 1281 L 724.5 1279 L 705.5 1276 L 687.5 1271 L 682.5 1271 L 657.5 1266 L 651.5 1266 L 644.5 1264 L 637.5 1264 L 636.5 1263 L 621.5 1262 L 612.5 1260 L 604.5 1260 L 603.5 1259 L 594.5 1259 L 585.5 1257 L 583.5 1258 L 582.5 1257 L 555.5 1256 L 553.5 1255 L 551.5 1256 L 550.5 1255 L 534.5 1255 L 533.5 1254 L 469.5 1254 L 461.5 1252 L 457 1247.5 Q 456.3 1241.8 459 1239.5 L 469.5 1228 L 499.5 1203 L 565.5 1154 L 582.5 1143 L 592 1141 L 590.5 1144 L 535.5 1186 L 514 1205.5 L 502 1222.5 L 502 1230.5 L 507.5 1237 L 520.5 1241 L 537.5 1242 L 538.5 1243 L 541.5 1242 L 544.5 1243 L 546.5 1242 L 547.5 1243 L 580.5 1243 L 581.5 1244 L 596.5 1244 L 597.5 1245 L 607.5 1245 L 618.5 1247 L 629.5 1247 L 630.5 1248 L 638.5 1248 L 639.5 1249 L 646.5 1249 L 654.5 1251 L 661.5 1251 L 662.5 1252 L 689.5 1255 L 718.5 1261 L 729.5 1262 L 802.5 1278 L 809.5 1281 L 817.5 1282 L 828.5 1286 L 862.5 1294 L 869.5 1297 L 907.5 1307 L 907.5 1306 L 866.5 1291 L 838.5 1283 L 835.5 1281 L 770.5 1263 L 766.5 1263 L 721.5 1252 L 716.5 1252 L 683.5 1245 L 659.5 1242 L 658.5 1241 L 635.5 1239 L 634.5 1238 L 623.5 1238 L 622.5 1237 L 620.5 1237 L 596.5 1236 L 595.5 1235 L 571.5 1235 L 570.5 1234 L 531.5 1234 L 530.5 1233 L 514.5 1232 L 510 1228.5 L 509 1225.5 L 521.5 1210 L 545.5 1189 L 602.5 1145 L 607.5 1142 L 617.5 1141 L 615.5 1144 Q 585 1165.5 560 1192.5 L 555 1199.5 L 557 1200 L 560.5 1195 L 634.5 1140 Z " /><path fill="rgb(248,246,234)" stroke="rgb(248,246,234)" stroke-width="0" opacity="1" d="M 555.5 1144 L 563 1144.5 L 559 1147 Q 560.1 1149.7 557.5 1149 L 500.5 1191 L 464 1221 L 464 1222.5 L 455 1231.5 L 450 1240.5 L 450 1249.5 L 457.5 1259 L 470.5 1263 L 533.5 1263 L 534.5 1264 L 551.5 1264 L 552.5 1265 L 565.5 1265 L 566.5 1266 L 602.5 1268 L 603.5 1269 L 630.5 1271 L 637.5 1273 L 670.5 1277 L 711.5 1285 L 764.5 1298 L 768.5 1298 L 823.5 1313 L 892.5 1336 L 983.5 1371 L 991.5 1373 L 1001.5 1378 L 1070.5 1401 L 1120.5 1412 L 1134.5 1413 L 1142.5 1415 L 1153.5 1415 L 1154.5 1416 L 1170.5 1416 L 1171.5 1417 L 1173.5 1417 L 1178.5 1416 L 1180.5 1417 L 1182.5 1417 L 1185.5 1416 L 1187.5 1417 L 1188.5 1416 L 1207.5 1416 L 1208.5 1415 L 1227.5 1414 L 1264.5 1407 Q 1297.5 1398.5 1326.5 1386 L 1382.5 1357 Q 1432.1 1326.6 1476.5 1291 Q 1477.9 1288.4 1482.5 1289 Q 1487.1 1291.8 1494 1291 L 1489.5 1297 L 1456.5 1325 L 1424.5 1349 L 1378.5 1379 L 1325 1410.5 L 1326.5 1411 L 1381.5 1385 L 1420.5 1363 L 1464.5 1334 L 1510.5 1297 L 1514.5 1296 L 1520.5 1298 L 1525.5 1298 L 1527 1299.5 L 1482.5 1337 L 1444.5 1365 L 1408.5 1388 L 1366.5 1410 L 1329.5 1425 L 1296.5 1435 L 1268.5 1441 L 1254.5 1442 L 1253.5 1443 L 1243.5 1443 L 1242.5 1444 L 1229.5 1444 L 1227.5 1445 L 1225.5 1445 L 1192.5 1445 L 1191.5 1444 L 1175.5 1444 L 1174.5 1443 L 1144.5 1441 L 1133.5 1438 L 1127.5 1438 L 1096.5 1432 L 1092.5 1430 L 1067.5 1425 L 979.5 1398 L 860.5 1353 L 801 1334 Q 799.9 1336.7 802.5 1336 L 818.5 1344 L 849.5 1355 L 956.5 1398 L 1007.5 1416 L 1053.5 1430 L 1106.5 1443 L 1146.5 1450 L 1179.5 1452 L 1180.5 1453 L 1238.5 1453 L 1239.5 1452 L 1249.5 1452 L 1250.5 1451 L 1259.5 1451 L 1260.5 1450 L 1273.5 1449 L 1315.5 1439 L 1347.5 1428 L 1388.5 1410 L 1413.5 1397 L 1464.5 1365 L 1506.5 1334 L 1540.5 1305 L 1544.5 1302 L 1547.5 1302 L 1553 1304.5 Q 1505.8 1347.3 1453.5 1385 L 1406.5 1415 L 1376 1432 L 1376.5 1434 L 1417.5 1414 L 1474.5 1380 Q 1525.1 1347.1 1568.5 1307 L 1573.5 1307 L 1579 1308 Q 1580.1 1310.7 1577.5 1310 Q 1533 1351 1483.5 1387 L 1443.5 1414 L 1398.5 1439 L 1352.5 1459 L 1328.5 1467 L 1293.5 1476 L 1286.5 1476 L 1280.5 1478 L 1272.5 1478 L 1262.5 1480 L 1253.5 1480 L 1252.5 1481 L 1225.5 1481 L 1221.5 1482 L 1219.5 1482 L 1215.5 1481 L 1193.5 1481 L 1192.5 1480 L 1182.5 1480 L 1181.5 1479 L 1156.5 1477 L 1111.5 1468 L 1107.5 1466 L 1103.5 1466 L 1087.5 1461 L 1082.5 1461 L 1078.5 1459 L 1067.5 1457 L 1056.5 1453 L 1057.5 1455 L 1077.5 1464 L 1091.5 1469 L 1101.5 1471 L 1107.5 1474 L 1151.5 1484 L 1156.5 1484 L 1175.5 1488 L 1184.5 1488 L 1194.5 1490 L 1206.5 1490 L 1207.5 1491 L 1250.5 1491 L 1251.5 1490 L 1263.5 1490 L 1264.5 1489 L 1288.5 1487 L 1317.5 1481 L 1346.5 1473 L 1381.5 1460 L 1421.5 1441 L 1444.5 1428 L 1484.5 1402 L 1504.5 1387 L 1508 1386 Q 1506.9 1383.3 1509.5 1384 Q 1555.1 1351.6 1595 1313.5 Q 1594.2 1310.9 1597.5 1312 L 1611 1314.5 Q 1569.4 1354.4 1524.5 1391 L 1489.5 1418 L 1426 1460.5 L 1427.5 1461 Q 1484.5 1432 1534.5 1396 L 1577.5 1363 L 1619.5 1325 L 1621 1325 L 1627.5 1317 L 1637.5 1319 L 1639 1318.5 L 1631.5 1327 Q 1591.2 1366.2 1546.5 1401 L 1497.5 1436 L 1447.5 1465 L 1412.5 1482 L 1398.5 1487 L 1396.5 1489 L 1356.5 1503 L 1353.5 1503 L 1350.5 1505 L 1304.5 1515 L 1283.5 1517 L 1282.5 1518 L 1258.5 1519 L 1257.5 1520 L 1255.5 1520 L 1212.5 1520 L 1211.5 1519 L 1196.5 1519 L 1195.5 1518 L 1185.5 1518 L 1184.5 1517 L 1161.5 1515 L 1141.5 1511 L 1142.5 1513 L 1174.5 1521 L 1198.5 1524 L 1199.5 1525 L 1218.5 1526 L 1219.5 1527 L 1248.5 1527 L 1250.5 1528 L 1252.5 1528 L 1284.5 1527 L 1285.5 1526 L 1294.5 1526 L 1295.5 1525 L 1302.5 1525 L 1303.5 1524 L 1327.5 1521 L 1370.5 1510 L 1411.5 1495 L 1456.5 1474 L 1494.5 1453 Q 1539.2 1425.2 1579 1392.5 Q 1578.3 1390.3 1580.5 1391 L 1617 1361 Q 1615.9 1358.3 1618.5 1359 L 1650.5 1329 L 1652 1329 L 1653.5 1326 Q 1655.8 1326.8 1655 1324.5 Q 1656.7 1321.2 1662.5 1322 L 1663.5 1323 L 1671 1323 L 1668 1328.5 L 1616.5 1381 L 1613.5 1383 L 1588.5 1407 L 1578 1415 Q 1579.1 1417.7 1576.5 1417 L 1548.5 1441 L 1509.5 1471 L 1478 1492.5 Q 1477.3 1494.8 1479.5 1494 L 1512.5 1474 L 1574.5 1431 L 1611.5 1401 L 1656.5 1360 L 1658 1360 L 1661.5 1355 L 1685 1332.5 L 1690.5 1326 L 1701 1327 Q 1675.9 1359.1 1645.5 1387 L 1631 1399 Q 1632.1 1401.7 1629.5 1401 L 1576.5 1449 L 1514 1496 Q 1512.9 1498.7 1515.5 1498 L 1554.5 1473 L 1592.5 1446 L 1601.5 1438 L 1605 1437 Q 1603.9 1434.3 1606.5 1435 L 1663 1388 Q 1661.9 1385.3 1664.5 1386 L 1692 1360.5 Q 1691.3 1358.3 1693.5 1359 L 1695 1356 L 1702 1350.5 L 1720.5 1330 L 1727.5 1330 L 1733 1331.5 L 1728.5 1337 Q 1726.3 1336.3 1727 1338.5 L 1698 1369.5 L 1698 1371 L 1696.5 1371 L 1688 1379.5 L 1685.5 1383 L 1684 1383 L 1684 1385 Q 1681.3 1383.9 1682 1386.5 L 1679 1388 Q 1680.1 1390.7 1677.5 1390 L 1658.5 1409 L 1657 1409 Q 1658.1 1411.7 1655.5 1411 L 1608.5 1453 L 1542 1505.5 L 1543.5 1506 L 1594.5 1473 L 1651.5 1431 Q 1691.6 1398.6 1727 1361.5 L 1729 1358.5 L 1751.5 1334 L 1761.5 1334 L 1774 1336 L 1772 1341 Q 1769.3 1339.9 1770 1342.5 L 1739 1373.5 L 1739 1375 L 1737.5 1375 Q 1707.2 1406.7 1673.5 1435 L 1613.5 1482 L 1571.5 1511 L 1539.5 1531 L 1471.5 1567 L 1415.5 1589 L 1368.5 1603 L 1359.5 1604 L 1344.5 1608 L 1326.5 1610 L 1319.5 1612 L 1311.5 1612 L 1310.5 1613 L 1290.5 1614 L 1289.5 1615 L 1248.5 1615 L 1246.5 1616 L 1245.5 1615 L 1226.5 1615 L 1225.5 1614 L 1203.5 1613 L 1202.5 1612 L 1169.5 1608 L 1164.5 1606 L 1139.5 1602 L 1135.5 1600 L 1112.5 1595 L 1102.5 1591 L 1098.5 1591 L 1086.5 1586 L 1066.5 1581 L 1046.5 1573 L 1043.5 1573 L 1007.5 1559 L 888.5 1508 L 870.5 1499 L 831.5 1483 L 829.5 1481 L 712.5 1435 L 640.5 1412 L 603.5 1402 L 599.5 1402 L 588.5 1398 L 524.5 1385 L 510.5 1384 L 503.5 1382 L 496.5 1382 L 479.5 1379 L 472.5 1379 L 471.5 1378 L 469.5 1378 L 439.5 1376 L 438.5 1375 L 436.5 1375 L 421.5 1375 L 420.5 1374 L 368.5 1374 L 367.5 1375 L 354.5 1375 L 343.5 1377 L 341.5 1377 L 318.5 1379 L 317.5 1380 L 294.5 1383 L 264.5 1390 Q 243.9 1395.9 226.5 1405 L 211 1417.5 L 209 1425 Q 201.7 1425.1 199 1419.5 Q 193.1 1413.4 194 1400.5 Q 195.9 1390.9 201 1384.5 L 218.5 1367 L 230.5 1357 L 233 1357 L 235.5 1353 Q 286.6 1312.1 341.5 1275 L 341 1276.5 Q 333.1 1284.6 332 1299.5 L 336.5 1306 L 341.5 1309 L 351.5 1311 L 370.5 1311 L 371.5 1310 L 390.5 1310 L 391.5 1309 L 408.5 1309 L 409.5 1308 L 411.5 1308 L 452.5 1308 L 453.5 1307 Q 455.3 1309.7 461.5 1308 L 463.5 1308 L 490.5 1308 L 491.5 1309 L 520.5 1310 L 521.5 1311 L 530.5 1311 L 537.5 1313 L 545.5 1313 L 546.5 1314 L 591.5 1319 L 625.5 1326 L 630.5 1326 L 639.5 1329 L 644.5 1329 L 715.5 1346 L 766.5 1362 L 776.5 1364 L 779.5 1366 L 805.5 1374 L 851.5 1393 L 854.5 1393 L 864.5 1398 L 867.5 1398 L 890.5 1409 L 895.5 1410 L 1008.5 1458 L 1061.5 1477 L 1105 1489 Q 1106.3 1486 1102.5 1487 L 905.5 1404 L 812.5 1369 L 726.5 1341 L 670.5 1326 L 666.5 1326 L 620.5 1315 L 609.5 1314 L 569.5 1306 L 553.5 1305 L 552.5 1304 L 519.5 1301 L 518.5 1300 L 494.5 1299 L 493.5 1298 L 491.5 1298 L 458.5 1298 L 457.5 1297 L 456.5 1298 L 416.5 1298 L 415.5 1299 L 398.5 1299 L 397.5 1300 L 382.5 1300 L 381.5 1301 L 368.5 1301 L 367.5 1302 L 344.5 1302 L 340 1298.5 L 340 1294.5 L 343 1288.5 L 359.5 1271 L 362.5 1269 L 383.5 1247 L 405.5 1230 L 473.5 1184 L 511.5 1159 L 513.5 1159 L 516.5 1156 L 531.5 1148 L 530.5 1150 L 441.5 1214 L 411.5 1238 L 402 1247.5 Q 394.3 1254.3 390 1264.5 L 389 1274.5 L 394.5 1282 L 397.5 1284 L 409.5 1287 L 411.5 1287 L 481.5 1287 L 482.5 1286 L 483.5 1287 L 514.5 1287 L 515.5 1288 L 517.5 1288 L 550.5 1289 L 551.5 1290 L 582.5 1292 L 583.5 1293 L 590.5 1293 L 591.5 1294 L 627.5 1298 L 667.5 1306 L 672.5 1306 L 699.5 1313 L 713.5 1315 L 730.5 1320 L 740.5 1321 L 758.5 1326 L 772.5 1328 L 771.5 1326 L 721.5 1310 L 685.5 1301 L 616.5 1288 L 571.5 1283 L 570.5 1282 L 568.5 1282 L 538.5 1280 L 537.5 1279 L 524.5 1279 L 523.5 1278 L 504.5 1278 L 503.5 1277 L 440.5 1277 L 438.5 1277 L 435.5 1278 L 433.5 1277 L 432.5 1278 L 410.5 1278 L 400.5 1276 L 396 1272.5 L 396 1268.5 L 401 1260.5 L 413.5 1248 Q 482.3 1193.8 555.5 1144 Z M 406 1340 L 405 1341 L 365 1342 L 356 1344 L 337 1345 L 288 1354 L 246 1368 L 235 1373 L 214 1386 L 211 1390 L 250 1375 L 279 1367 L 323 1359 L 331 1359 L 339 1357 L 349 1357 L 350 1356 L 360 1356 L 361 1355 L 376 1355 L 377 1354 L 445 1354 L 446 1355 L 458 1355 L 459 1356 L 470 1356 L 471 1357 L 488 1358 L 489 1359 L 495 1359 L 496 1360 L 541 1366 L 571 1373 L 576 1373 L 605 1381 L 625 1385 L 665 1397 L 707 1412 L 710 1412 L 767 1433 L 837 1462 L 848 1468 L 853 1469 L 980 1526 L 1072 1562 L 1125 1579 L 1161 1588 L 1207 1596 L 1244 1598 L 1246 1598 L 1248 1599 L 1277 1599 L 1278 1598 L 1296 1598 L 1306 1596 L 1316 1596 L 1356 1589 L 1365 1586 L 1365 1585 L 1347 1587 L 1346 1588 L 1338 1588 L 1337 1589 L 1311 1590 L 1310 1591 L 1263 1591 L 1262 1590 L 1233 1589 L 1232 1588 L 1217 1587 L 1210 1585 L 1192 1583 L 1187 1581 L 1181 1581 L 1173 1578 L 1168 1578 L 1156 1574 L 1144 1572 L 1084 1553 L 1068 1547 L 1066 1545 L 1055 1542 L 976 1509 L 965 1503 L 807 1433 L 707 1395 L 647 1376 L 598 1363 L 539 1351 L 526 1350 L 505 1346 L 478 1344 L 476 1344 L 475 1343 L 466 1343 L 464 1343 L 463 1342 L 450 1342 L 448 1342 L 447 1341 L 426 1341 L 424 1341 L 421 1340 L 416 1341 L 413 1340 L 411 1340 L 409 1341 L 406 1340 Z " /><path fill="rgb(248,246,234)" stroke="rgb(248,246,234)" stroke-width="0" opacity="1" d="M 1642 1270 L 1649.5 1270 L 1669 1274 L 1667 1292 L 1660.5 1292 L 1659.5 1291 L 1657.5 1291 L 1645.5 1290 L 1639 1287.5 L 1642 1270 Z " /><path fill="rgb(248,246,234)" stroke="rgb(248,246,234)" stroke-width="0" opacity="1" d="M 1694 1278 L 1717 1281 L 1716 1298 L 1701.5 1297 L 1692 1295 L 1694 1278 Z " /><path fill="rgb(58,54,47)" stroke="rgb(58,54,47)" stroke-width="0" opacity="1" d="M 1364.5 206 L 1390.5 207 L 1418.5 214 L 1437.5 224 L 1449 234.5 L 1456 245.5 L 1461 265.5 L 1462.5 267 L 1467.5 267 L 1489.5 272 L 1500.5 273 L 1509.5 276 L 1525.5 278 L 1534.5 281 L 1559.5 286 L 1578.5 292 L 1582.5 292 L 1597.5 297 L 1605.5 298 L 1672.5 320 L 1732.5 344 L 1800.5 378 L 1858.5 414 L 1893.5 439 L 1926.5 466 L 1945.5 484 L 1947 484 Q 1945.9 486.7 1948.5 486 L 1961.5 499 L 1963 499 L 1963 500.5 L 1981 518.5 L 1981 520 L 1983 520 L 1983 522 Q 1985.7 520.9 1985 523.5 Q 2010.1 548.9 2030 579.5 Q 2051 611.5 2069 646.5 L 2078 667.5 L 2081 671.5 L 2095 709.5 L 2097 711.5 L 2097 714.5 L 2108 745.5 Q 2110.9 764.1 2117 779.5 L 2117 783.5 L 2121 797.5 L 2121 802.5 L 2123 806.5 L 2123 808.5 L 2131 854.5 L 2131 860.5 L 2135 882.5 L 2135 889.5 L 2136 890.5 L 2137 908.5 L 2139 918.5 L 2139 930.5 L 2140 931.5 L 2142 976.5 L 2143 978.5 L 2142 980.5 L 2143 981.5 L 2143 1005.5 L 2144 1007.5 L 2143 1010.5 L 2144 1011.5 L 2144 1085.5 L 2144 1087.5 L 2143 1090.5 L 2143 1112.5 L 2142 1115.5 L 2142 1117.5 L 2142 1134.5 L 2141 1135.5 L 2142 1137.5 L 2141 1138.5 L 2141 1157.5 L 2140 1158.5 L 2140 1173.5 L 2139 1174.5 L 2139 1185.5 L 2138 1186.5 L 2138 1200.5 L 2137 1201.5 L 2134 1236.5 L 2130 1254.5 L 2126 1263.5 L 2117 1277 L 2115 1277 Q 2116.1 1279.7 2113.5 1279 L 2106.5 1286 L 2088.5 1297 L 2066.5 1306 L 2032.5 1316 L 1999.5 1323 L 1993.5 1323 L 1973.5 1327 L 1966.5 1327 L 1959.5 1329 L 1935.5 1331 L 1919.5 1334 L 1908.5 1334 L 1897.5 1336 L 1886.5 1336 L 1875.5 1338 L 1854.5 1339 L 1853.5 1340 L 1851.5 1340 L 1816.5 1342 L 1805 1352.5 L 1774.5 1386 L 1771 1388.5 L 1740.5 1420 L 1737.5 1422 Q 1640.6 1516.1 1516.5 1583 L 1462.5 1608 L 1402.5 1629 L 1372.5 1637 L 1347.5 1642 L 1341.5 1642 L 1320.5 1646 L 1312.5 1646 L 1311.5 1647 L 1288.5 1648 L 1287.5 1649 L 1283.5 1648 L 1282.5 1649 L 1229.5 1649 L 1228.5 1648 L 1194.5 1646 L 1193.5 1645 L 1172.5 1643 L 1149.5 1638 L 1144.5 1638 L 1140.5 1636 L 1127.5 1634 L 1092.5 1625 L 1079.5 1620 L 1060.5 1615 L 1057.5 1613 L 1054.5 1613 L 1051.5 1611 L 1048.5 1611 L 975.5 1583 L 840.5 1524 L 836.5 1521 L 833.5 1521 L 822.5 1515 L 812.5 1512 L 806.5 1508 L 798.5 1506 L 759.5 1489 L 714.5 1472 L 708.5 1471 L 700.5 1467 L 621.5 1442 L 561.5 1427 L 508.5 1417 L 502.5 1417 L 480.5 1413 L 460.5 1412 L 459.5 1411 L 413.5 1410 L 360.5 1437 L 310.5 1455 L 266.5 1464 L 256.5 1464 L 255.5 1465 L 226.5 1465 L 225.5 1464 L 212.5 1463 L 199.5 1459 Q 182.4 1452.1 172 1438.5 L 162 1418.5 L 161 1413.5 L 161 1395.5 L 169 1372.5 Q 177 1359 188.5 1349 Q 190.8 1349.8 190 1347.5 Q 250.6 1297.1 315.5 1251 L 504 1123.5 L 510 1103.5 L 516 1074.5 L 516 1067.5 L 519 1052.5 L 522 1020.5 L 523 1019.5 L 523 1012.5 L 524 1011.5 L 524 1004.5 L 525 1003.5 L 525 996.5 L 528 979.5 L 528 971.5 L 529 970.5 L 533 933.5 L 535 925.5 L 535 917.5 L 538 903.5 L 538 897.5 L 539 896.5 L 542 868.5 L 546 849.5 L 546 843.5 L 548 836.5 L 548 830.5 L 551 818.5 L 555 788.5 L 557 783.5 L 559 769.5 L 561 765.5 L 561 760.5 L 563 755.5 L 567 733.5 L 571 721.5 L 571 717.5 L 580 686.5 L 589 662.5 L 589 659.5 L 606 617.5 L 633 566.5 L 663 522 Q 665.7 523.1 665 520.5 L 681 500 Q 683.7 501.1 683 498.5 L 703.5 476 Q 705.8 476.8 705 474.5 L 708 473 L 708 471 L 710 471 L 710 469 Q 712.7 470.1 712 467.5 L 718 463 L 719.5 460 L 745 439 Q 743.9 436.3 746.5 437 L 757.5 427 L 800.5 396 L 862.5 360 L 922.5 332 L 993.5 306 L 1000.5 305 L 1016.5 299 L 1058.5 288 L 1137.5 272 L 1149.5 271 L 1156.5 269 L 1163.5 269 L 1164.5 268 L 1171.5 268 L 1172.5 267 L 1179.5 267 L 1180.5 266 L 1187.5 266 L 1188.5 265 L 1205.5 264 L 1206.5 263 L 1217.5 263 L 1228.5 261 L 1239.5 261 L 1240.5 260 L 1252.5 260 L 1253.5 259 L 1266.5 259 L 1267.5 258 L 1280.5 258 L 1281.5 257 L 1288 257 Q 1291.8 238.5 1304.5 228 Q 1314.4 219.4 1327.5 214 L 1344.5 209 L 1354.5 207 L 1363.5 207 L 1364.5 206 Z M 1368 235 L 1367 236 L 1358 236 L 1343 239 L 1328 246 L 1319 256 Q 1318 263 1321 267 L 1326 271 L 1341 276 L 1362 280 L 1372 280 L 1373 281 L 1401 280 L 1421 275 L 1421 274 L 1398 278 L 1382 278 L 1381 277 L 1373 277 L 1367 275 L 1362 275 L 1339 267 L 1337 264 L 1360 268 L 1370 268 L 1371 269 L 1382 269 L 1383 268 L 1393 268 L 1401 266 L 1407 266 Q 1418 264 1426 259 L 1429 255 L 1412 260 L 1398 262 L 1396 262 L 1388 260 Q 1384 261 1385 258 L 1400 257 L 1416 251 L 1418 248 L 1412 243 L 1393 237 L 1368 235 Z M 1243 295 L 1242 296 L 1231 296 L 1230 297 L 1192 300 L 1191 301 L 1182 301 L 1181 302 L 1153 305 L 1146 307 L 1116 311 L 1111 313 L 1106 313 L 1027 332 L 947 359 L 882 388 L 820 424 Q 764 461 719 509 Q 720 511 717 510 L 705 525 Q 706 527 703 526 L 670 571 L 645 615 L 625 661 L 603 730 L 591 783 L 591 788 L 582 831 L 578 863 L 574 882 L 574 889 L 570 912 L 570 921 L 569 922 L 564 967 L 563 968 L 563 975 L 562 976 L 562 984 L 560 992 L 560 1001 L 558 1008 L 553 1060 L 550 1073 L 549 1085 L 547 1090 L 548 1096 L 558 1093 Q 560 1092 558 1091 L 564 1029 L 565 1028 L 571 974 L 572 973 L 572 966 L 573 965 L 573 957 L 577 938 L 581 905 L 583 899 L 587 870 L 590 859 L 591 847 L 594 838 L 596 823 L 606 781 L 613 758 L 614 758 L 607 803 L 605 808 L 603 825 L 602 826 L 602 832 L 599 844 L 597 863 L 595 869 L 591 903 L 590 904 L 590 912 L 588 918 L 588 926 L 585 943 L 584 960 L 583 961 L 583 970 L 581 980 L 581 988 L 580 989 L 578 1019 L 577 1020 L 577 1028 L 576 1029 L 575 1047 L 574 1048 L 574 1056 L 573 1057 L 570 1089 Q 568 1090 571 1091 L 577 1090 L 578 1073 L 579 1072 L 579 1060 L 580 1059 L 580 1050 L 581 1049 L 581 1040 L 584 1023 L 584 1016 L 585 1015 L 585 1008 L 587 1001 L 587 994 L 589 987 L 593 957 L 595 951 L 595 946 L 601 921 L 603 920 L 602 939 L 600 948 L 600 957 L 599 958 L 599 969 L 597 978 L 596 999 L 595 1000 L 595 1011 L 593 1021 L 592 1039 L 591 1040 L 591 1052 L 589 1062 L 590 1064 L 589 1065 L 588 1085 L 587 1088 L 594 1087 Q 596 1086 594 1085 L 595 1084 L 597 1057 L 598 1056 L 598 1049 L 601 1034 L 604 1006 L 614 960 Q 613 955 616 956 L 615 973 L 615 975 L 613 985 L 613 994 L 613 996 L 611 1007 L 609 1047 L 608 1048 L 608 1058 L 607 1059 L 605 1086 Q 607 1084 613 1085 L 614 1084 L 614 1074 L 617 1057 L 617 1049 L 624 1009 L 624 1003 L 628 984 L 630 982 L 630 995 L 630 997 L 629 998 L 629 1016 L 628 1017 L 628 1030 L 627 1031 L 626 1060 L 624 1071 L 624 1081 L 623 1082 L 625 1085 L 626 1084 L 635 1084 L 635 1073 L 636 1072 L 637 1061 L 637 1059 L 643 1021 L 645 1015 Q 644 1011 647 1012 L 646 1048 L 645 1049 L 645 1063 L 644 1064 L 644 1078 L 643 1084 L 649 1083 L 652 1084 L 654 1084 L 656 1083 L 659 1051 L 662 1037 L 665 1032 L 666 1035 L 666 1048 L 665 1049 L 666 1051 L 665 1052 L 663 1083 Q 664 1085 666 1083 Q 671 1082 673 1084 L 677 1083 Q 677 1065 683 1052 L 684 1057 L 683 1059 L 683 1077 L 682 1083 L 704 1083 L 705 1084 L 707 1083 L 711 1084 L 729 1084 L 730 1085 L 749 1085 L 750 1086 L 779 1087 L 790 1089 L 820 1091 L 829 1093 L 848 1094 L 856 1096 L 863 1096 L 892 1101 L 898 1101 L 899 1102 L 906 1102 L 932 1107 L 939 1107 L 945 1109 L 998 1117 L 1003 1119 L 1034 1124 L 1175 1153 L 1179 1155 L 1215 1162 L 1228 1166 L 1237 1167 L 1323 1188 L 1327 1188 L 1344 1193 L 1353 1194 L 1382 1202 L 1409 1207 L 1411 1207 L 1418 1210 L 1435 1213 L 1436 1212 L 1437 1204 L 1448 1163 L 1450 1162 L 1450 1172 L 1449 1173 L 1448 1187 L 1441 1215 L 1464 1220 L 1473 1182 L 1473 1178 L 1479 1157 Q 1477 1151 1481 1152 L 1481 1164 L 1480 1165 L 1478 1189 L 1476 1194 L 1474 1211 L 1471 1222 L 1492 1226 L 1506 1161 L 1508 1145 L 1510 1140 Q 1509 1135 1512 1136 L 1512 1143 L 1511 1144 L 1510 1175 L 1503 1211 L 1502 1223 L 1500 1228 L 1521 1233 L 1523 1229 L 1525 1215 L 1532 1186 L 1533 1174 L 1541 1136 L 1543 1119 L 1545 1118 L 1544 1146 L 1543 1147 L 1543 1159 L 1541 1168 L 1541 1176 L 1531 1234 L 1533 1235 L 1538 1235 L 1549 1238 L 1562 1174 L 1564 1154 L 1566 1148 L 1566 1141 L 1570 1123 L 1570 1116 L 1572 1109 L 1575 1086 L 1576 1086 L 1576 1110 L 1575 1111 L 1575 1124 L 1574 1125 L 1574 1136 L 1572 1146 L 1570 1174 L 1570 1176 L 1569 1177 L 1568 1189 L 1566 1194 L 1566 1201 L 1562 1220 L 1562 1225 L 1558 1240 L 1576 1244 L 1577 1243 L 1580 1224 L 1582 1219 L 1585 1197 L 1587 1192 L 1588 1181 L 1592 1163 L 1593 1149 L 1598 1123 L 1603 1077 L 1605 1070 L 1608 1039 L 1610 1034 L 1610 1065 L 1610 1067 L 1609 1069 L 1609 1088 L 1609 1090 L 1608 1092 L 1608 1104 L 1608 1106 Q 1606 1109 1607 1117 L 1606 1118 L 1606 1131 L 1604 1142 L 1604 1151 L 1602 1159 L 1599 1190 L 1594 1214 L 1594 1220 L 1591 1231 L 1591 1236 L 1588 1246 L 1605 1249 L 1607 1243 L 1608 1232 L 1611 1220 L 1611 1214 L 1615 1197 L 1616 1184 L 1618 1179 L 1620 1159 L 1624 1140 L 1625 1125 L 1627 1118 L 1628 1102 L 1630 1095 L 1630 1087 L 1630 1085 L 1633 1069 L 1637 1025 L 1638 1024 L 1638 1013 L 1640 1003 L 1640 990 L 1642 979 L 1644 945 L 1644 943 L 1647 920 L 1647 950 L 1647 952 L 1646 956 L 1646 976 L 1646 978 L 1645 983 L 1645 1004 L 1644 1005 L 1645 1007 L 1644 1008 L 1644 1027 L 1644 1029 L 1643 1030 L 1643 1047 L 1642 1048 L 1640 1093 L 1640 1095 L 1638 1106 L 1636 1138 L 1634 1146 L 1632 1169 L 1630 1176 L 1630 1185 L 1628 1192 L 1627 1205 L 1625 1211 L 1625 1217 L 1619 1252 L 1634 1254 L 1637 1236 L 1639 1211 L 1642 1194 L 1643 1179 L 1644 1178 L 1647 1145 L 1648 1144 L 1649 1125 L 1652 1108 L 1652 1100 L 1653 1099 L 1655 1070 L 1657 1060 L 1657 1050 L 1658 1049 L 1658 1038 L 1659 1037 L 1659 1026 L 1660 1025 L 1662 987 L 1663 986 L 1663 975 L 1664 974 L 1664 961 L 1664 959 L 1665 958 L 1665 947 L 1666 946 L 1665 944 L 1666 943 L 1666 925 L 1667 924 L 1667 897 L 1667 895 L 1668 892 L 1668 836 L 1667 835 L 1666 789 L 1665 788 L 1665 774 L 1664 773 L 1664 763 L 1663 762 L 1661 729 L 1659 720 L 1660 709 L 1662 725 L 1664 730 L 1664 737 L 1666 744 L 1668 764 L 1669 765 L 1669 773 L 1670 774 L 1670 782 L 1671 783 L 1672 806 L 1673 807 L 1673 822 L 1674 823 L 1674 848 L 1674 850 L 1675 852 L 1675 929 L 1675 931 L 1674 933 L 1672 995 L 1671 996 L 1671 1010 L 1670 1011 L 1669 1035 L 1668 1036 L 1668 1049 L 1667 1050 L 1667 1061 L 1666 1062 L 1664 1098 L 1661 1115 L 1659 1144 L 1657 1154 L 1657 1162 L 1656 1163 L 1656 1172 L 1653 1188 L 1651 1213 L 1650 1214 L 1650 1221 L 1648 1229 L 1645 1256 L 1647 1257 L 1671 1260 L 1673 1249 L 1674 1232 L 1676 1224 L 1677 1207 L 1681 1184 L 1686 1131 L 1688 1122 L 1688 1113 L 1689 1112 L 1689 1104 L 1690 1103 L 1690 1094 L 1692 1084 L 1692 1075 L 1694 1067 L 1695 1045 L 1697 1034 L 1697 1025 L 1698 1024 L 1698 1010 L 1700 1000 L 1702 959 L 1703 958 L 1704 920 L 1704 918 L 1705 916 L 1705 891 L 1705 889 L 1706 888 L 1706 852 L 1706 850 L 1705 845 L 1706 843 L 1705 842 L 1704 789 L 1703 788 L 1701 752 L 1698 735 L 1698 728 L 1697 727 L 1697 719 L 1695 712 L 1693 694 L 1690 683 L 1690 678 L 1688 673 L 1687 662 L 1675 614 L 1657 563 L 1637 521 L 1612 480 L 1591 453 Q 1592 450 1589 451 Q 1585 443 1577 437 Q 1578 434 1575 435 L 1575 433 L 1573 433 L 1558 415 L 1557 415 L 1527 387 L 1498 365 L 1447 332 L 1411 313 L 1398 308 L 1392 309 L 1454 349 L 1487 375 L 1513 399 L 1518 403 Q 1566 449 1600 510 L 1624 560 L 1624 563 L 1627 568 L 1635 591 L 1647 636 L 1647 641 L 1649 646 L 1651 663 L 1652 664 L 1652 672 L 1653 673 L 1651 673 L 1650 665 L 1635 612 L 1614 557 Q 1597 520 1576 488 Q 1561 464 1543 445 Q 1544 442 1541 443 L 1535 435 L 1507 405 Q 1504 406 1505 403 L 1503 403 L 1503 401 L 1501 401 L 1501 399 L 1494 394 L 1459 363 L 1414 331 L 1376 309 L 1364 309 L 1363 308 L 1358 308 L 1343 313 L 1304 330 Q 1269 347 1238 367 Q 1188 399 1149 442 Q 1150 444 1147 443 L 1111 488 Q 1095 508 1083 533 L 1081 534 L 1084 525 L 1094 505 L 1113 475 Q 1138 438 1170 409 Q 1172 410 1171 407 L 1216 371 L 1248 350 L 1298 323 L 1336 306 L 1336 305 L 1324 307 L 1288 319 L 1244 338 L 1221 350 Q 1169 378 1129 417 Q 1130 419 1127 418 L 1127 420 L 1123 423 Q 1124 425 1121 424 L 1093 458 L 1076 482 Q 1057 511 1042 545 Q 1040 550 1034 551 L 1029 550 L 1024 545 L 1025 535 L 1032 517 L 1053 477 L 1084 433 L 1106 409 Q 1105 406 1108 407 L 1112 402 L 1140 377 L 1178 349 L 1208 331 L 1241 314 L 1278 299 L 1278 298 L 1261 302 L 1216 318 L 1170 340 Q 1124 365 1089 400 L 1084 404 Q 1057 430 1036 461 L 1012 500 L 991 541 L 989 541 L 1004 504 L 1018 477 Q 1039 440 1067 410 L 1095 383 Q 1097 384 1096 381 L 1119 363 L 1165 333 L 1213 309 L 1252 296 L 1243 295 Z M 1279 297 L 1279 298 L 1281 298 L 1279 297 Z M 1474 319 L 1475 321 Q 1501 335 1524 353 L 1553 376 L 1578 400 L 1579 400 L 1579 402 L 1601 425 Q 1600 427 1603 426 Q 1629 457 1651 494 L 1672 534 L 1692 583 L 1705 629 L 1717 686 L 1718 699 L 1723 725 L 1725 752 L 1726 753 L 1727 781 L 1729 792 L 1729 807 L 1729 809 L 1730 810 L 1730 834 L 1731 838 L 1731 840 L 1730 845 L 1730 849 Q 1732 850 1731 855 L 1730 858 L 1731 861 L 1731 863 L 1730 866 L 1730 908 L 1729 909 L 1730 911 L 1729 912 L 1729 933 L 1728 934 L 1727 965 L 1726 966 L 1726 976 L 1725 977 L 1726 979 L 1725 980 L 1725 990 L 1724 991 L 1724 1003 L 1723 1004 L 1721 1036 L 1721 1038 L 1720 1039 L 1720 1049 L 1719 1050 L 1719 1060 L 1718 1061 L 1716 1089 L 1715 1090 L 1715 1101 L 1713 1111 L 1713 1119 L 1712 1120 L 1712 1129 L 1711 1130 L 1710 1147 L 1708 1156 L 1703 1208 L 1702 1209 L 1702 1219 L 1701 1220 L 1701 1227 L 1700 1228 L 1696 1264 L 1702 1266 L 1718 1268 L 1719 1267 L 1721 1247 L 1724 1233 L 1727 1200 L 1729 1192 L 1731 1169 L 1732 1168 L 1735 1130 L 1736 1129 L 1738 1104 L 1739 1103 L 1739 1094 L 1741 1085 L 1741 1075 L 1743 1065 L 1743 1057 L 1744 1056 L 1746 1027 L 1747 1026 L 1747 1015 L 1748 1014 L 1748 1004 L 1749 1003 L 1749 992 L 1751 981 L 1753 940 L 1753 938 L 1754 936 L 1754 917 L 1755 916 L 1755 892 L 1755 890 L 1756 887 L 1756 885 L 1755 792 L 1754 791 L 1754 775 L 1753 774 L 1752 748 L 1750 738 L 1748 710 L 1747 709 L 1747 699 L 1746 698 L 1748 697 L 1754 731 L 1754 739 L 1757 754 L 1759 778 L 1760 779 L 1760 789 L 1761 790 L 1761 800 L 1762 801 L 1763 843 L 1764 844 L 1764 911 L 1764 913 L 1763 916 L 1764 918 L 1763 919 L 1763 944 L 1763 946 L 1762 948 L 1762 963 L 1761 964 L 1761 979 L 1760 980 L 1760 990 L 1759 991 L 1759 1002 L 1759 1004 L 1758 1005 L 1757 1022 L 1756 1023 L 1757 1025 L 1755 1035 L 1755 1046 L 1753 1056 L 1753 1064 L 1752 1065 L 1752 1073 L 1751 1074 L 1751 1084 L 1749 1094 L 1749 1102 L 1748 1103 L 1747 1123 L 1745 1132 L 1745 1141 L 1743 1149 L 1742 1165 L 1741 1166 L 1740 1185 L 1738 1194 L 1738 1203 L 1737 1204 L 1737 1212 L 1736 1213 L 1736 1221 L 1735 1222 L 1734 1239 L 1733 1240 L 1730 1270 L 1738 1271 L 1739 1268 L 1740 1253 L 1741 1252 L 1743 1229 L 1743 1227 L 1746 1213 L 1746 1205 L 1751 1177 L 1751 1170 L 1753 1163 L 1755 1138 L 1757 1131 L 1760 1104 L 1761 1103 L 1765 1061 L 1767 1052 L 1771 1004 L 1772 1003 L 1772 992 L 1773 991 L 1775 948 L 1776 947 L 1776 930 L 1777 929 L 1776 925 L 1776 923 L 1777 922 L 1777 908 L 1777 906 L 1778 904 L 1778 886 L 1779 885 L 1779 870 L 1781 869 L 1781 876 L 1782 877 L 1782 950 L 1781 951 L 1782 954 L 1781 955 L 1781 975 L 1780 976 L 1778 1028 L 1776 1039 L 1776 1053 L 1775 1054 L 1774 1074 L 1773 1075 L 1774 1078 L 1773 1079 L 1772 1103 L 1770 1114 L 1770 1126 L 1768 1135 L 1768 1143 L 1767 1144 L 1767 1153 L 1766 1154 L 1766 1163 L 1765 1164 L 1765 1173 L 1763 1181 L 1761 1206 L 1758 1223 L 1758 1231 L 1756 1238 L 1755 1255 L 1752 1273 L 1763 1274 L 1766 1245 L 1767 1244 L 1767 1237 L 1768 1236 L 1768 1229 L 1770 1221 L 1770 1212 L 1773 1195 L 1773 1187 L 1776 1172 L 1779 1141 L 1780 1140 L 1782 1116 L 1784 1108 L 1785 1091 L 1787 1082 L 1787 1073 L 1789 1066 L 1791 1039 L 1793 1030 L 1793 1019 L 1795 1011 L 1796 989 L 1800 966 L 1801 950 L 1803 951 L 1802 952 L 1802 979 L 1801 980 L 1802 982 L 1801 985 L 1802 987 L 1801 988 L 1799 1051 L 1798 1052 L 1797 1079 L 1796 1080 L 1796 1091 L 1795 1092 L 1795 1102 L 1794 1103 L 1794 1115 L 1792 1126 L 1791 1146 L 1791 1148 L 1789 1158 L 1788 1177 L 1787 1178 L 1786 1194 L 1785 1195 L 1785 1204 L 1784 1205 L 1784 1214 L 1782 1223 L 1782 1232 L 1780 1241 L 1779 1257 L 1778 1258 L 1778 1266 L 1776 1275 Q 1779 1278 1786 1277 L 1789 1253 L 1791 1246 L 1791 1238 L 1794 1225 L 1795 1210 L 1799 1188 L 1799 1181 L 1800 1180 L 1800 1173 L 1806 1139 L 1806 1132 L 1808 1124 L 1808 1116 L 1810 1108 L 1810 1100 L 1815 1071 L 1815 1065 L 1816 1064 L 1816 1058 L 1818 1051 L 1818 1045 L 1820 1042 L 1820 1059 L 1820 1061 L 1819 1062 L 1819 1080 L 1819 1082 L 1818 1084 L 1818 1099 L 1817 1100 L 1817 1113 L 1816 1114 L 1813 1158 L 1813 1160 L 1812 1161 L 1811 1179 L 1810 1180 L 1810 1189 L 1808 1197 L 1808 1205 L 1807 1206 L 1807 1214 L 1806 1215 L 1806 1224 L 1805 1225 L 1804 1242 L 1803 1243 L 1802 1261 L 1800 1270 L 1800 1278 L 1809 1278 L 1810 1277 Q 1809 1271 1811 1270 L 1811 1260 L 1813 1252 L 1815 1228 L 1817 1220 L 1820 1192 L 1822 1185 L 1823 1169 L 1825 1162 L 1829 1128 L 1830 1127 L 1830 1120 L 1835 1091 L 1835 1085 L 1837 1086 L 1835 1149 L 1835 1151 L 1833 1162 L 1834 1164 L 1833 1165 L 1833 1174 L 1833 1176 Q 1831 1179 1832 1186 L 1832 1188 L 1830 1198 L 1830 1206 L 1830 1208 L 1829 1209 L 1827 1237 L 1825 1245 L 1822 1277 L 1821 1278 L 1823 1278 L 1825 1278 L 1834 1278 L 1834 1277 L 1834 1275 L 1846 1184 L 1846 1182 L 1848 1174 L 1850 1151 L 1851 1150 L 1852 1132 L 1855 1120 Q 1858 1129 1856 1144 L 1856 1146 L 1855 1148 L 1855 1170 L 1854 1171 L 1854 1191 L 1853 1192 L 1853 1203 L 1852 1204 L 1852 1215 L 1850 1224 L 1848 1248 L 1847 1249 L 1848 1251 L 1846 1257 L 1845 1271 L 1843 1277 L 1844 1278 L 1859 1278 L 1860 1277 L 1860 1268 L 1862 1258 L 1862 1250 L 1863 1249 L 1863 1241 L 1864 1240 L 1864 1231 L 1866 1223 L 1867 1206 L 1868 1205 L 1871 1176 L 1876 1148 L 1877 1148 L 1877 1189 L 1876 1190 L 1875 1220 L 1875 1222 L 1874 1223 L 1874 1231 L 1874 1233 L 1872 1241 L 1872 1250 L 1870 1258 L 1870 1264 L 1869 1265 L 1869 1273 L 1868 1274 Q 1867 1278 1869 1278 L 1883 1278 L 1884 1263 L 1886 1256 L 1886 1249 L 1890 1227 L 1890 1219 L 1893 1204 L 1894 1191 L 1894 1189 L 1899 1162 L 1900 1162 L 1900 1199 L 1899 1200 L 1898 1228 L 1896 1238 L 1894 1264 L 1891 1278 L 1904 1278 L 1907 1277 L 1908 1276 L 1908 1261 L 1909 1260 L 1909 1250 L 1910 1249 L 1913 1212 L 1914 1211 L 1915 1197 L 1917 1192 L 1920 1171 L 1921 1171 L 1921 1214 L 1919 1225 L 1919 1236 L 1917 1244 L 1917 1252 L 1915 1259 L 1915 1264 L 1910 1278 L 1914 1279 L 1917 1278 Q 1919 1277 1918 1280 L 1911 1283 L 1887 1286 L 1886 1287 L 1864 1288 L 1863 1289 L 1848 1289 L 1846 1289 L 1843 1290 L 1841 1290 L 1791 1290 L 1790 1289 L 1775 1289 L 1774 1288 L 1764 1288 L 1763 1287 L 1747 1286 L 1746 1285 L 1739 1285 L 1727 1283 L 1725 1299 L 1729 1300 L 1739 1300 L 1740 1301 L 1758 1302 L 1759 1303 L 1768 1303 L 1769 1304 L 1790 1305 L 1791 1306 L 1807 1306 L 1808 1307 Q 1813 1309 1815 1306 L 1849 1306 L 1850 1305 L 1877 1304 L 1878 1303 L 1887 1303 L 1888 1302 L 1897 1302 L 1907 1300 L 1934 1298 L 1935 1297 L 1944 1297 L 1945 1296 L 1984 1291 L 1985 1290 L 1991 1290 L 2027 1282 L 2056 1273 L 2071 1267 L 2088 1257 Q 2096 1250 2098 1239 L 2072 1253 L 2058 1258 L 2031 1265 L 2027 1265 L 2023 1267 L 2005 1269 L 1999 1271 L 1981 1271 L 1974 1269 L 1975 1247 L 1976 1246 L 1976 1231 L 1977 1230 L 1977 1219 L 1978 1218 L 1978 1205 L 1980 1195 L 1981 1176 L 1982 1175 L 1982 1165 L 1984 1157 L 1983 1155 L 1985 1145 L 1986 1124 L 1987 1123 L 1987 1114 L 1989 1113 L 1989 1130 L 1990 1131 L 1990 1166 L 1989 1167 L 1990 1171 L 1990 1173 L 1989 1174 L 1989 1195 L 1988 1196 L 1988 1211 L 1986 1222 L 1986 1232 L 1985 1233 L 1985 1241 L 1983 1247 L 1983 1253 L 1980 1267 L 1980 1268 L 1985 1268 L 1995 1265 L 1997 1263 L 1997 1251 L 1998 1250 L 2001 1190 L 2002 1189 L 2002 1177 L 2003 1176 L 2003 1164 L 2004 1163 L 2005 1135 L 2006 1134 L 2007 1100 L 2007 1098 L 2008 1097 L 2009 1059 L 2011 1055 Q 2014 1062 2012 1075 L 2012 1077 L 2013 1079 L 2013 1161 L 2013 1163 L 2012 1166 L 2012 1182 L 2011 1183 L 2012 1185 L 2011 1186 L 2010 1209 L 2010 1211 L 2008 1222 L 2006 1256 L 2004 1262 L 2015 1259 L 2016 1258 L 2017 1244 L 2018 1243 L 2020 1209 L 2021 1208 L 2021 1196 L 2022 1195 L 2022 1183 L 2023 1182 L 2024 1151 L 2025 1150 L 2024 1148 L 2025 1147 L 2025 1134 L 2026 1133 L 2025 1131 L 2025 1129 L 2026 1128 L 2026 1112 L 2027 1111 L 2026 1109 L 2026 1107 L 2027 1105 L 2027 1077 L 2028 1076 L 2027 1074 L 2028 1073 L 2028 1040 L 2028 1038 L 2028 1027 L 2027 1026 Q 2026 1020 2028 1019 L 2027 1018 L 2026 968 L 2025 967 L 2026 960 L 2029 976 L 2032 1018 L 2033 1019 L 2034 1051 L 2035 1052 L 2035 1076 L 2035 1078 L 2035 1098 L 2036 1099 L 2035 1100 L 2034 1171 L 2034 1173 L 2033 1174 L 2032 1206 L 2032 1210 L 2031 1212 L 2028 1253 L 2027 1256 L 2035 1253 L 2036 1252 L 2036 1244 L 2037 1243 L 2039 1206 L 2040 1205 L 2040 1192 L 2040 1190 L 2041 1189 L 2041 1172 L 2041 1170 L 2042 1169 L 2042 1153 L 2043 1152 L 2043 1130 L 2044 1129 L 2044 1098 L 2044 1096 L 2045 1092 Q 2047 1085 2044 1084 Q 2046 1082 2045 1078 L 2045 1076 L 2045 1064 L 2044 1063 L 2045 1061 L 2045 1059 L 2044 1056 L 2044 1014 L 2043 1013 L 2044 1011 L 2043 1008 L 2042 971 L 2041 970 L 2042 967 L 2041 966 L 2040 941 L 2039 940 L 2039 928 L 2038 927 L 2038 912 L 2036 903 L 2036 891 L 2035 890 L 2037 889 L 2041 909 L 2047 963 L 2049 971 L 2051 999 L 2052 1000 L 2051 1002 L 2052 1003 L 2052 1014 L 2053 1015 L 2054 1046 L 2054 1048 L 2055 1050 L 2055 1082 L 2055 1084 L 2056 1089 L 2055 1091 L 2056 1093 L 2056 1131 L 2055 1132 L 2056 1134 L 2055 1136 L 2055 1161 L 2054 1162 L 2055 1164 L 2054 1165 L 2054 1184 L 2054 1186 L 2053 1187 L 2053 1202 L 2052 1203 L 2052 1216 L 2051 1217 L 2049 1248 Q 2047 1249 2050 1250 L 2056 1247 L 2058 1242 L 2058 1229 L 2059 1228 L 2059 1217 L 2060 1216 L 2061 1188 L 2062 1187 L 2062 1168 L 2063 1167 L 2062 1165 L 2063 1164 L 2063 1141 L 2064 1140 L 2064 1038 L 2064 1036 L 2063 1034 L 2063 1008 L 2062 1007 L 2061 966 L 2060 965 L 2061 963 L 2060 962 L 2057 914 L 2055 905 L 2053 880 L 2049 860 L 2049 853 L 2046 840 L 2046 834 L 2036 789 L 2037 786 L 2045 810 L 2052 837 L 2061 882 L 2061 890 L 2063 895 L 2063 902 L 2068 931 L 2067 933 L 2069 942 L 2069 950 L 2070 951 L 2072 980 L 2072 982 L 2073 983 L 2075 1028 L 2076 1029 L 2076 1045 L 2077 1046 L 2076 1048 L 2077 1049 L 2077 1088 L 2078 1089 L 2077 1092 L 2077 1094 L 2078 1097 Q 2080 1103 2077 1105 L 2078 1107 L 2077 1109 L 2078 1112 L 2078 1114 L 2077 1116 L 2078 1119 L 2077 1120 L 2077 1163 L 2076 1164 L 2076 1182 L 2075 1183 L 2074 1210 L 2074 1212 L 2073 1213 L 2073 1223 L 2071 1232 L 2071 1239 L 2071 1240 L 2074 1239 L 2076 1231 L 2079 1204 L 2080 1203 L 2082 1165 L 2083 1164 L 2083 1146 L 2084 1145 L 2084 1121 L 2085 1120 L 2084 1118 L 2085 1117 L 2085 1075 L 2086 1074 L 2085 1068 L 2085 1066 L 2086 1062 L 2085 1060 L 2086 1056 L 2085 1053 L 2085 1051 Q 2084 1046 2086 1045 L 2085 1044 L 2085 1011 L 2084 1010 L 2083 966 L 2082 965 L 2082 951 L 2081 950 L 2080 930 L 2080 928 L 2079 927 L 2079 918 L 2078 917 L 2074 875 L 2069 848 L 2069 841 L 2066 831 L 2066 825 L 2058 786 L 2047 745 L 2031 700 L 2021 677 L 2000 636 L 1979 603 L 1981 602 L 2001 630 L 2023 667 L 2047 720 L 2065 775 L 2065 779 L 2069 791 L 2073 814 L 2075 819 L 2075 825 L 2081 852 L 2082 865 L 2087 891 L 2090 927 L 2091 928 L 2092 949 L 2093 950 L 2095 992 L 2096 993 L 2096 1012 L 2097 1013 L 2096 1015 L 2097 1016 L 2097 1044 L 2097 1046 L 2098 1062 L 2098 1064 L 2098 1088 L 2097 1089 L 2098 1091 L 2097 1094 L 2098 1099 L 2097 1100 L 2097 1135 L 2096 1136 L 2096 1154 L 2095 1155 L 2095 1168 L 2094 1169 L 2094 1184 L 2093 1185 L 2093 1197 L 2091 1208 L 2091 1217 L 2090 1218 L 2090 1227 L 2089 1228 L 2090 1230 L 2101 1218 L 2103 1190 L 2104 1189 L 2104 1177 L 2105 1176 L 2105 1161 L 2106 1160 L 2105 1158 L 2106 1157 L 2106 1144 L 2106 1142 L 2107 1141 L 2107 1129 L 2108 1128 L 2107 1126 L 2108 1125 L 2108 1109 L 2109 1108 L 2109 1076 L 2110 1074 L 2110 1072 L 2110 1005 L 2109 1004 L 2109 976 L 2108 975 L 2108 957 L 2107 956 L 2107 941 L 2105 930 L 2105 919 L 2104 918 L 2104 910 L 2102 902 L 2099 873 L 2098 872 L 2097 857 L 2093 839 L 2093 833 L 2085 794 L 2077 766 L 2077 762 L 2069 736 L 2060 715 L 2060 712 L 2051 690 L 2030 647 L 1999 596 Q 1986 575 1969 558 Q 1970 555 1967 556 Q 1950 533 1928 513 Q 1925 514 1926 512 Q 1890 477 1849 449 Q 1809 422 1766 399 L 1719 376 L 1665 354 L 1601 333 L 1564 323 L 1560 324 L 1620 343 L 1669 363 L 1699 377 Q 1741 398 1779 423 L 1818 453 L 1821 455 L 1826 461 L 1761 420 L 1691 384 L 1637 362 L 1573 340 L 1569 341 L 1621 361 L 1661 380 L 1706 406 L 1733 426 L 1733 428 L 1681 399 L 1649 385 L 1647 383 L 1605 365 L 1552 346 L 1550 347 Q 1587 364 1621 386 Q 1646 403 1667 425 L 1667 426 L 1640 406 L 1593 378 L 1590 379 L 1612 396 L 1615 401 L 1621 406 Q 1620 408 1623 407 L 1623 409 L 1642 429 L 1668 463 L 1691 500 L 1707 532 L 1727 584 L 1739 632 L 1741 650 L 1743 657 L 1743 660 L 1740 657 L 1739 648 L 1737 645 L 1732 623 L 1721 589 L 1707 553 L 1705 551 L 1690 517 L 1665 475 L 1635 436 L 1617 417 L 1617 415 L 1616 415 L 1583 384 L 1546 357 L 1513 337 L 1474 319 Z M 1562 337 L 1564 339 L 1566 339 L 1562 337 Z M 1567 339 L 1567 340 L 1569 340 L 1567 339 Z M 636 1095 L 635 1096 L 620 1096 L 619 1097 L 597 1098 L 596 1099 L 567 1102 L 544 1108 L 542 1112 L 542 1115 L 542 1116 L 551 1116 L 560 1114 L 580 1113 L 581 1112 L 596 1112 L 597 1111 L 612 1111 L 615 1110 L 617 1110 L 695 1110 L 696 1111 L 715 1111 L 716 1112 L 727 1112 L 728 1113 L 741 1113 L 742 1114 L 744 1113 L 745 1114 L 776 1116 L 793 1119 L 800 1119 L 801 1120 L 816 1121 L 817 1122 L 824 1122 L 825 1123 L 833 1123 L 841 1125 L 848 1125 L 877 1130 L 883 1130 L 884 1131 L 890 1131 L 897 1133 L 903 1133 L 909 1135 L 933 1138 L 972 1146 L 977 1146 L 1006 1153 L 1027 1156 L 1031 1158 L 1051 1161 L 1056 1163 L 1061 1163 L 1075 1167 L 1081 1167 L 1085 1169 L 1094 1170 L 1112 1175 L 1117 1175 L 1126 1178 L 1152 1183 L 1164 1187 L 1199 1194 L 1203 1196 L 1242 1204 L 1255 1208 L 1259 1208 L 1288 1216 L 1296 1217 L 1300 1219 L 1321 1223 L 1325 1225 L 1335 1226 L 1361 1233 L 1370 1234 L 1433 1249 L 1451 1252 L 1455 1254 L 1479 1258 L 1518 1267 L 1523 1267 L 1533 1270 L 1539 1270 Q 1547 1274 1559 1274 L 1564 1276 L 1575 1277 L 1580 1279 L 1591 1280 L 1613 1285 L 1630 1287 L 1631 1286 L 1633 1268 L 1610 1263 L 1604 1263 L 1593 1260 L 1588 1260 L 1549 1251 L 1540 1250 L 1535 1248 L 1526 1247 L 1521 1245 L 1512 1244 L 1495 1239 L 1490 1239 L 1473 1234 L 1468 1234 L 1447 1228 L 1438 1227 Q 1420 1221 1400 1218 L 1375 1211 L 1362 1209 L 1341 1203 L 1328 1201 L 1312 1196 L 1291 1192 L 1219 1174 L 1210 1173 L 1161 1161 L 1147 1159 L 1081 1144 L 1076 1144 L 1025 1133 L 1019 1133 L 1014 1131 L 997 1129 L 986 1126 L 975 1125 L 969 1123 L 952 1121 L 928 1116 L 894 1112 L 887 1110 L 880 1110 L 879 1109 L 872 1109 L 865 1107 L 849 1106 L 841 1104 L 816 1102 L 815 1101 L 791 1100 L 780 1098 L 768 1098 L 766 1098 L 765 1097 L 754 1097 L 753 1096 L 751 1097 L 750 1096 L 731 1096 L 730 1095 L 638 1095 L 636 1095 Z M 635 1140 L 561 1195 L 557 1200 L 555 1200 L 560 1193 Q 585 1165 616 1144 L 618 1141 L 608 1142 L 603 1145 L 546 1189 L 522 1210 L 509 1226 L 510 1229 L 515 1232 L 531 1233 L 532 1234 L 571 1234 L 572 1235 L 596 1235 L 597 1236 L 621 1237 L 623 1237 L 624 1238 L 635 1238 L 636 1239 L 659 1241 L 660 1242 L 684 1245 L 717 1252 L 722 1252 L 767 1263 L 771 1263 L 836 1281 L 839 1283 L 867 1291 L 908 1306 L 908 1307 L 870 1297 L 863 1294 L 829 1286 L 818 1282 L 810 1281 L 803 1278 L 730 1262 L 719 1261 L 690 1255 L 663 1252 L 662 1251 L 655 1251 L 647 1249 L 640 1249 L 639 1248 L 631 1248 L 630 1247 L 619 1247 L 608 1245 L 598 1245 L 597 1244 L 582 1244 L 581 1243 L 548 1243 L 547 1242 L 545 1243 L 542 1242 L 539 1243 L 538 1242 L 521 1241 L 508 1237 L 502 1231 L 502 1223 L 514 1206 L 536 1186 L 591 1144 L 592 1141 L 583 1143 L 566 1154 L 500 1203 L 470 1228 L 459 1240 Q 456 1242 457 1248 L 462 1252 L 470 1254 L 534 1254 L 535 1255 L 551 1255 L 552 1256 L 554 1255 L 556 1256 L 583 1257 L 584 1258 L 586 1257 L 595 1259 L 604 1259 L 605 1260 L 613 1260 L 622 1262 L 637 1263 L 638 1264 L 645 1264 L 652 1266 L 658 1266 L 683 1271 L 688 1271 L 706 1276 L 725 1279 L 728 1281 L 771 1291 L 827 1307 L 867 1321 L 870 1321 L 999 1367 L 1034 1381 L 1060 1389 L 1113 1402 L 1119 1402 L 1132 1405 L 1140 1405 L 1141 1406 L 1151 1406 L 1152 1407 L 1207 1407 L 1208 1406 L 1218 1406 L 1226 1404 L 1233 1404 L 1273 1395 L 1307 1383 Q 1347 1366 1383 1344 Q 1424 1317 1462 1286 L 1446 1281 Q 1441 1280 1440 1283 Q 1416 1303 1390 1320 L 1350 1343 L 1313 1361 L 1271 1378 L 1268 1378 L 1326 1349 L 1350 1335 L 1378 1316 L 1425 1280 L 1426 1277 L 1413 1274 Q 1354 1320 1285 1354 L 1280 1355 L 1253 1367 L 1211 1379 L 1198 1380 L 1197 1381 L 1187 1381 L 1186 1382 L 1173 1382 L 1171 1382 L 1170 1383 L 1162 1383 L 1160 1383 L 1130 1381 L 1079 1370 L 1015 1349 L 1005 1344 L 989 1339 L 942 1320 L 942 1319 L 977 1329 L 1025 1346 L 1032 1347 L 1035 1349 L 1054 1354 L 1067 1359 L 1110 1369 L 1136 1372 L 1137 1373 L 1185 1373 L 1186 1372 L 1195 1372 L 1228 1365 L 1260 1354 Q 1295 1339 1326 1320 L 1371 1290 L 1394 1272 L 1393 1270 L 1381 1267 L 1347 1291 L 1302 1318 L 1270 1334 L 1227 1351 L 1225 1351 L 1295 1314 L 1336 1287 L 1364 1265 Q 1366 1266 1365 1263 L 1357 1261 L 1352 1261 L 1332 1276 L 1287 1303 L 1249 1321 L 1246 1321 Q 1297 1293 1340 1258 L 1326 1254 L 1322 1255 L 1317 1260 L 1301 1270 L 1266 1290 L 1264 1290 Q 1286 1270 1312 1254 L 1313 1251 L 1302 1248 L 1297 1248 L 1257 1270 L 1255 1270 L 1288 1248 Q 1290 1249 1289 1247 L 1288 1245 L 1251 1236 L 1247 1236 L 1239 1233 L 1230 1232 L 1188 1221 L 1175 1219 L 1078 1196 L 1064 1194 L 1059 1192 L 1054 1192 L 1015 1183 L 1010 1183 L 1005 1181 L 980 1177 L 975 1175 L 936 1169 L 931 1167 L 896 1162 L 895 1161 L 889 1161 L 882 1159 L 869 1158 L 856 1155 L 811 1150 L 810 1149 L 803 1149 L 802 1148 L 792 1148 L 783 1146 L 749 1144 L 748 1143 L 736 1143 L 735 1142 L 692 1141 L 691 1140 L 679 1140 L 649 1162 L 647 1163 L 655 1153 L 657 1150 L 666 1143 L 668 1140 L 657 1140 L 602 1182 Q 599 1183 600 1181 Q 618 1159 641 1143 L 643 1140 L 638 1141 L 635 1140 Z M 556 1144 Q 482 1194 414 1248 L 401 1261 L 396 1269 L 396 1273 L 401 1276 L 411 1278 L 433 1278 L 434 1277 L 436 1278 L 439 1277 L 441 1277 L 504 1277 L 505 1278 L 524 1278 L 525 1279 L 538 1279 L 539 1280 L 569 1282 L 571 1282 L 572 1283 L 617 1288 L 686 1301 L 722 1310 L 772 1326 L 773 1328 L 759 1326 L 741 1321 L 731 1320 L 714 1315 L 700 1313 L 673 1306 L 668 1306 L 628 1298 L 592 1294 L 591 1293 L 584 1293 L 583 1292 L 552 1290 L 551 1289 L 518 1288 L 516 1288 L 515 1287 L 484 1287 L 483 1286 L 482 1287 L 412 1287 L 410 1287 L 398 1284 L 395 1282 L 389 1275 L 390 1265 Q 394 1254 402 1248 L 412 1238 L 442 1214 L 531 1150 L 532 1148 L 517 1156 L 514 1159 L 512 1159 L 474 1184 L 406 1230 L 384 1247 L 363 1269 L 360 1271 L 343 1289 L 340 1295 L 340 1299 L 345 1302 L 368 1302 L 369 1301 L 382 1301 L 383 1300 L 398 1300 L 399 1299 L 416 1299 L 417 1298 L 457 1298 L 458 1297 L 459 1298 L 492 1298 L 494 1298 L 495 1299 L 519 1300 L 520 1301 L 553 1304 L 554 1305 L 570 1306 L 610 1314 L 621 1315 L 667 1326 L 671 1326 L 727 1341 L 813 1369 L 906 1404 L 1103 1487 Q 1106 1486 1105 1489 L 1062 1477 L 1009 1458 L 896 1410 L 891 1409 L 868 1398 L 865 1398 L 855 1393 L 852 1393 L 806 1374 L 780 1366 L 777 1364 L 767 1362 L 716 1346 L 645 1329 L 640 1329 L 631 1326 L 626 1326 L 592 1319 L 547 1314 L 546 1313 L 538 1313 L 531 1311 L 522 1311 L 521 1310 L 492 1309 L 491 1308 L 464 1308 L 462 1308 Q 455 1310 454 1307 L 453 1308 L 412 1308 L 410 1308 L 409 1309 L 392 1309 L 391 1310 L 372 1310 L 371 1311 L 352 1311 L 342 1309 L 337 1306 L 332 1300 L 332 1295 L 334 1289 L 341 1276 L 306 1300 L 236 1353 L 233 1357 L 231 1357 L 219 1367 L 201 1385 Q 196 1391 194 1401 Q 193 1413 199 1420 Q 202 1425 209 1425 L 211 1418 L 227 1405 Q 244 1396 265 1390 L 295 1383 L 318 1380 L 319 1379 L 342 1377 L 344 1377 L 355 1375 L 368 1375 L 369 1374 L 421 1374 L 422 1375 L 437 1375 L 439 1375 L 440 1376 L 470 1378 L 472 1378 L 473 1379 L 480 1379 L 497 1382 L 504 1382 L 511 1384 L 525 1385 L 589 1398 L 600 1402 L 604 1402 L 641 1412 L 713 1435 L 830 1481 L 832 1483 L 871 1499 L 889 1508 L 1008 1559 L 1044 1573 L 1047 1573 L 1067 1581 L 1087 1586 L 1099 1591 L 1103 1591 L 1113 1595 L 1136 1600 L 1140 1602 L 1165 1606 L 1170 1608 L 1203 1612 L 1204 1613 L 1226 1614 L 1227 1615 L 1246 1615 L 1247 1616 L 1249 1615 L 1290 1615 L 1291 1614 L 1311 1613 L 1312 1612 L 1320 1612 L 1327 1610 L 1345 1608 L 1360 1604 L 1369 1603 L 1416 1589 L 1472 1567 L 1540 1531 L 1572 1511 L 1614 1482 L 1674 1435 Q 1707 1407 1738 1375 L 1739 1375 L 1739 1374 L 1770 1343 Q 1769 1340 1772 1341 L 1774 1336 L 1762 1334 L 1752 1334 L 1729 1359 L 1727 1362 Q 1692 1399 1652 1431 L 1595 1473 L 1544 1506 L 1542 1506 L 1609 1453 L 1656 1411 Q 1658 1412 1657 1409 L 1659 1409 L 1678 1390 Q 1680 1391 1679 1388 L 1682 1387 Q 1681 1384 1684 1385 L 1684 1383 L 1686 1383 L 1688 1380 L 1697 1371 L 1698 1371 L 1698 1370 L 1727 1339 Q 1726 1336 1729 1337 L 1733 1332 L 1728 1330 L 1721 1330 L 1702 1351 L 1695 1356 L 1694 1359 Q 1691 1358 1692 1361 L 1665 1386 Q 1662 1385 1663 1388 L 1607 1435 Q 1604 1434 1605 1437 L 1602 1438 L 1593 1446 L 1555 1473 L 1515 1498 L 1513 1499 L 1514 1496 L 1577 1449 L 1630 1401 Q 1632 1402 1631 1399 L 1646 1387 Q 1676 1359 1701 1327 L 1691 1326 L 1685 1333 L 1662 1355 L 1658 1360 L 1657 1360 L 1612 1401 L 1575 1431 L 1513 1474 L 1480 1494 Q 1477 1495 1478 1493 L 1510 1471 L 1549 1441 L 1577 1417 Q 1579 1418 1578 1415 L 1589 1407 L 1614 1383 L 1617 1381 L 1668 1329 L 1671 1323 L 1664 1323 L 1663 1322 Q 1657 1321 1655 1325 Q 1656 1327 1654 1326 L 1652 1329 L 1651 1329 L 1619 1359 Q 1616 1358 1617 1361 L 1581 1391 Q 1578 1390 1579 1393 Q 1539 1425 1495 1453 L 1457 1474 L 1412 1495 L 1371 1510 L 1328 1521 L 1304 1524 L 1303 1525 L 1296 1525 L 1295 1526 L 1286 1526 L 1285 1527 L 1253 1528 L 1251 1528 L 1249 1527 L 1220 1527 L 1219 1526 L 1200 1525 L 1199 1524 L 1175 1521 L 1143 1513 L 1142 1511 L 1162 1515 L 1185 1517 L 1186 1518 L 1196 1518 L 1197 1519 L 1212 1519 L 1213 1520 L 1256 1520 L 1258 1520 L 1259 1519 L 1283 1518 L 1284 1517 L 1305 1515 L 1351 1505 L 1354 1503 L 1357 1503 L 1397 1489 L 1399 1487 L 1413 1482 L 1448 1465 L 1498 1436 L 1547 1401 Q 1591 1366 1632 1327 L 1639 1319 L 1638 1319 L 1628 1317 L 1621 1325 L 1620 1325 L 1578 1363 L 1525 1403 L 1477 1434 L 1427 1461 L 1425 1462 L 1490 1418 L 1525 1391 Q 1569 1354 1611 1315 L 1598 1312 Q 1594 1311 1595 1314 Q 1555 1352 1510 1384 Q 1507 1383 1508 1386 L 1505 1387 L 1485 1402 L 1445 1428 L 1422 1441 L 1382 1460 L 1347 1473 L 1318 1481 L 1289 1487 L 1265 1489 L 1264 1490 L 1252 1490 L 1251 1491 L 1208 1491 L 1207 1490 L 1195 1490 L 1185 1488 L 1176 1488 L 1157 1484 L 1152 1484 L 1108 1474 L 1102 1471 L 1092 1469 L 1078 1464 L 1058 1455 L 1057 1453 L 1068 1457 L 1079 1459 L 1083 1461 L 1088 1461 L 1104 1466 L 1108 1466 L 1112 1468 L 1157 1477 L 1182 1479 L 1183 1480 L 1193 1480 L 1194 1481 L 1216 1481 L 1220 1482 L 1222 1482 L 1226 1481 L 1253 1481 L 1254 1480 L 1263 1480 L 1273 1478 L 1281 1478 L 1287 1476 L 1294 1476 L 1329 1467 L 1353 1459 L 1399 1439 L 1444 1414 L 1484 1387 Q 1533 1351 1578 1310 Q 1580 1311 1579 1308 L 1574 1307 L 1569 1307 Q 1525 1347 1475 1380 L 1418 1414 L 1377 1434 L 1376 1432 L 1407 1415 L 1454 1385 Q 1506 1347 1553 1305 L 1548 1302 L 1545 1302 L 1541 1305 L 1507 1334 L 1465 1365 L 1414 1397 L 1389 1410 L 1348 1428 L 1316 1439 L 1274 1449 L 1261 1450 L 1260 1451 L 1251 1451 L 1250 1452 L 1240 1452 L 1239 1453 L 1181 1453 L 1180 1452 L 1147 1450 L 1107 1443 L 1054 1430 L 1008 1416 L 957 1398 L 850 1355 L 819 1344 L 803 1336 Q 800 1337 801 1334 L 861 1353 L 980 1398 L 1068 1425 L 1093 1430 L 1097 1432 L 1128 1438 L 1134 1438 L 1145 1441 L 1175 1443 L 1176 1444 L 1192 1444 L 1193 1445 L 1226 1445 L 1228 1445 L 1230 1444 L 1243 1444 L 1244 1443 L 1254 1443 L 1255 1442 L 1269 1441 L 1297 1435 L 1330 1425 L 1367 1410 L 1409 1388 L 1445 1365 L 1483 1337 L 1527 1300 L 1526 1298 L 1521 1298 L 1515 1296 L 1511 1297 L 1465 1334 L 1421 1363 L 1382 1385 L 1327 1411 L 1325 1411 L 1379 1379 L 1425 1349 L 1457 1325 L 1490 1297 L 1494 1291 Q 1487 1292 1483 1289 Q 1478 1288 1477 1291 Q 1432 1327 1383 1357 L 1327 1386 Q 1298 1399 1265 1407 L 1228 1414 L 1209 1415 L 1208 1416 L 1189 1416 L 1188 1417 L 1186 1416 L 1183 1417 L 1181 1417 L 1179 1416 L 1174 1417 L 1172 1417 L 1171 1416 L 1155 1416 L 1154 1415 L 1143 1415 L 1135 1413 L 1121 1412 L 1071 1401 L 1002 1378 L 992 1373 L 984 1371 L 893 1336 L 824 1313 L 769 1298 L 765 1298 L 712 1285 L 671 1277 L 638 1273 L 631 1271 L 604 1269 L 603 1268 L 567 1266 L 566 1265 L 553 1265 L 552 1264 L 535 1264 L 534 1263 L 471 1263 L 458 1259 L 450 1250 L 450 1241 L 455 1232 L 464 1223 L 464 1221 L 501 1191 L 558 1149 Q 560 1150 559 1147 L 563 1145 L 556 1144 Z M 1642 1270 L 1639 1288 L 1646 1290 L 1658 1291 L 1660 1291 L 1661 1292 L 1667 1292 L 1669 1274 L 1650 1270 L 1642 1270 Z M 1694 1278 L 1692 1295 L 1702 1297 L 1716 1298 L 1717 1281 L 1694 1278 Z " /><path fill="rgb(58,54,47)" stroke="rgb(58,54,47)" stroke-width="0" opacity="1" d="M 898.5 394 L 896.5 397 L 889.5 400 L 831.5 437 L 794.5 465 L 767 488 Q 768.1 490.7 765.5 490 L 752.5 503 L 751 503 L 746.5 509 Q 744.3 508.3 745 510.5 L 733 522.5 L 733 524 Q 730.3 522.9 731 525.5 L 713 545.5 L 711 550 Q 708.3 548.9 709 551.5 Q 670.7 599.2 643.5 658 L 643 655.5 Q 655.4 619.9 673 589.5 L 701 547.5 L 733 509 L 735 509 Q 733.9 506.3 736.5 507 L 739 503 L 741 503 L 741 501 L 743 501 Q 741.9 498.3 744.5 499 Q 755.2 485.6 769 477 Q 767.9 474.3 770.5 475 L 791.5 457 L 830.5 430 L 866.5 409 L 898.5 394 Z " /><path fill="rgb(58,54,47)" stroke="rgb(58,54,47)" stroke-width="0" opacity="1" d="M 1836.5 546 Q 1846.8 544.8 1852.5 548 L 1867 557 Q 1865.9 559.7 1868.5 559 Q 1879.3 568.3 1885 582.5 L 1889 595.5 L 1889 605.5 Q 1887.3 614.8 1880.5 619 Q 1876 623.5 1865.5 622 Q 1849.1 617.9 1840 606.5 Q 1830.6 596.4 1825 582.5 L 1822 571.5 L 1822 561.5 Q 1823.5 553 1829.5 549 L 1836.5 546 Z M 1845 569 L 1856 589 L 1866 598 L 1867 598 L 1866 592 L 1859 580 Q 1854 571 1845 569 Z " /><path fill="rgb(58,54,47)" stroke="rgb(58,54,47)" stroke-width="0" opacity="1" d="M 983.5 751 Q 994 749 997 754.5 Q 999.3 759.3 998 767.5 L 994 778.5 L 994 784.5 Q 996.8 789.2 1005.5 788 L 1030.5 780 L 1035 783.5 L 1041 793.5 L 1042 802.5 L 1023 836.5 L 1010 863.5 L 1001 887.5 L 1000 901.5 L 1003.5 907 L 1007.5 908 L 1016.5 905 L 1029 894.5 L 1043 875.5 L 1066 824.5 Q 1074.8 809.8 1087.5 799 L 1105.5 788 L 1117.5 785 L 1126.5 785 L 1134.5 787 L 1141 791 L 1147 800.5 L 1147 803 L 1150 801.5 Q 1150.9 794.9 1155.5 792 L 1181.5 793 L 1183 794.5 L 1143 897.5 L 1139 910.5 L 1139 919.5 L 1141.5 923 L 1144.5 924 L 1152.5 922 L 1162 915 L 1177 896.5 L 1191 874.5 L 1214 821.5 L 1215 816 Q 1208 812.7 1197.5 812 L 1196 810.5 L 1196 806.5 L 1201.5 799 L 1211.5 799 L 1220.5 801 L 1225 793.5 L 1238 760 L 1241.5 759 L 1253.5 759 L 1261.5 757 L 1268.5 757 L 1270 760.5 L 1252 806 L 1278 810 L 1278 814.5 L 1274 824 L 1270.5 825 L 1258.5 822 L 1246.5 821 L 1230 857.5 L 1226 870.5 L 1211 905.5 L 1206 921.5 L 1206 923.5 Q 1205.9 931.6 1211.5 934 L 1218.5 935 L 1226.5 932 L 1241 920.5 L 1254 903.5 L 1263 879.5 L 1275 857.5 Q 1284.8 842.3 1298.5 831 L 1305.5 826 L 1316.5 821 L 1324.5 819 L 1341.5 819 Q 1360.5 822.5 1370 835.5 Q 1376.1 842.9 1378 854.5 L 1378 879.5 L 1375 892.5 L 1363 924.5 Q 1353.1 944.1 1337.5 958 Q 1328.5 967 1314.5 971 L 1309.5 972 L 1291.5 972 Q 1288.6 969.4 1282.5 970 L 1273.5 966 L 1261 954.5 L 1255 939.5 L 1254 923 Q 1251.3 921.9 1252 924.5 L 1234.5 943 L 1219.5 952 L 1211.5 954 L 1196.5 954 L 1186.5 950 L 1179 942.5 L 1176 935.5 L 1175 928.5 L 1176 926.5 L 1176 924.5 L 1177 915.5 L 1171 920.5 L 1163.5 929 Q 1155.3 937.3 1143.5 942 L 1129.5 944 L 1119.5 941 L 1113 934.5 Q 1108 925.5 1110 909.5 L 1111 906.5 L 1109 907.5 Q 1102.8 919.3 1092.5 927 L 1077.5 935 L 1064.5 935 L 1055.5 931 L 1049 924.5 L 1044 913.5 L 1042.5 896 L 1026.5 914 L 1010.5 924 L 1000.5 927 L 989.5 927 Q 979.5 925 975 917.5 Q 967.6 907.4 970 887.5 L 973 876.5 L 981 857.5 L 995 830.5 L 1009 807.5 L 1007.5 806 L 999.5 806 L 998.5 805 L 996.5 806 L 985.5 804 L 956 861.5 Q 942.9 884.4 927 903 L 925 903 Q 926.1 905.7 923.5 905 Q 913.9 918.9 890.5 919 Q 882.9 917.5 879 912.5 Q 871.9 904.1 874 886.5 L 875 884.5 L 873 885.5 L 866 897 Q 863.3 895.9 864 898.5 L 849.5 911 L 842.5 914 L 833.5 915 L 824.5 913 L 816 906.5 Q 809 897.5 808 882.5 L 809 880 L 806 881.5 Q 800.2 892.2 791.5 900 L 776.5 910 Q 771.9 909.4 770.5 912 L 758.5 912 Q 750.6 909.9 747 903.5 Q 742.1 895.9 744 881.5 L 751 854.5 L 771 806.5 L 775 785.5 L 772.5 782 L 768.5 781 L 761.5 783 L 751 793.5 L 743 805.5 L 732 829.5 L 732 832.5 L 728 840.5 L 719 869.5 L 717 872.5 L 707 906.5 L 704.5 910 L 701.5 909 L 678.5 909 L 677 907.5 L 700 837.5 L 702 834.5 L 703 828.5 L 706 822.5 L 709 809.5 L 711 806.5 L 714 792.5 L 714 784.5 L 713 782 L 708.5 781 Q 699.8 783.8 695 790.5 L 686 803.5 L 671 835.5 L 647 908.5 L 645.5 910 L 619.5 910 L 618 908.5 L 653 806.5 L 655 797.5 L 655 783.5 Q 654.3 781.3 650.5 782 L 634.5 802 L 629 798.5 L 628 794.5 Q 636.4 778.4 649.5 767 Q 656.1 759.6 669.5 759 L 676.5 761 L 680 764.5 Q 685.1 771.4 683 785.5 L 681 792.5 L 683 791.5 Q 689.6 776.6 701.5 767 L 717.5 759 L 727.5 759 L 737 765.5 L 741 773.5 L 742 787.5 L 741.5 789 Q 743.8 789.8 743 787.5 L 762.5 766 L 777.5 759 L 787.5 759 Q 795 760.4 799 765.5 L 803 773.5 L 804 787.5 L 797 814.5 L 787 840.5 L 783 847.5 L 783 850.5 L 774 873.5 L 773 887.5 L 774 890 L 780.5 891 L 793 881.5 Q 803.5 870 810 854.5 Q 818 828 830 805.5 Q 838.3 790.8 849.5 779 L 863.5 768 L 880.5 762 L 888.5 762 L 891.5 763 Q 901.3 764.2 905 771.5 L 908 779 Q 911.3 780.3 910 775.5 L 915.5 767 Q 921 768.5 922.5 766 L 924.5 766 L 926.5 767 L 942 767 L 942 771.5 L 929 809.5 L 907 868.5 L 902 891.5 L 903 895.5 L 905.5 898 Q 911.8 898.8 914.5 896 L 926 885.5 L 947 855.5 L 966 818.5 L 973 799.5 L 965 787.5 L 964 778.5 L 967 767.5 L 976.5 755 L 983.5 751 Z M 886 779 L 879 783 Q 876 782 877 785 L 875 785 L 863 802 L 853 822 L 844 848 L 839 870 L 839 886 L 841 890 L 847 893 L 850 893 L 856 890 Q 873 873 883 849 L 897 816 L 901 795 L 899 785 L 897 781 Q 894 778 886 779 Z M 1123 802 L 1115 807 Q 1112 806 1113 809 L 1111 809 L 1111 811 L 1109 811 Q 1084 842 1074 889 Q 1072 903 1077 911 L 1081 913 Q 1088 914 1092 911 Q 1106 898 1116 881 L 1125 863 L 1138 827 L 1138 810 L 1137 808 Q 1134 800 1123 802 Z M 1335 835 L 1324 841 Q 1292 874 1282 930 L 1282 941 L 1285 950 L 1292 955 Q 1302 956 1308 952 L 1321 938 L 1333 917 L 1348 879 L 1352 859 L 1352 848 L 1349 840 Q 1346 833 1335 835 Z " /><path fill="rgb(58,54,47)" stroke="rgb(58,54,47)" stroke-width="0" opacity="1" d="M 1555 796 L 1573.5 797 L 1574.5 798 L 1576.5 797 L 1577.5 798 L 1605.5 798 L 1607.5 797 L 1611 799.5 L 1566 897.5 L 1564 899.5 L 1553 927.5 L 1544 945.5 L 1543 950.5 L 1535 965.5 L 1527 986.5 L 1526 997.5 L 1529.5 1002 L 1537.5 1002 L 1543.5 999 L 1561 982.5 L 1574 964 Q 1577.8 963.3 1579 966.5 L 1581 972.5 L 1569 991 Q 1566.3 989.9 1567 992.5 L 1543.5 1015 L 1535.5 1019 L 1522.5 1022 L 1521.5 1021 L 1509.5 1020 L 1501 1014.5 L 1495 1004.5 L 1495 989.5 L 1497 980.5 L 1512 943.5 L 1570 813.5 L 1553 805.5 Q 1552.3 798.6 1555 796 Z " /><path fill="rgb(58,54,47)" stroke="rgb(58,54,47)" stroke-width="0" opacity="1" d="M 1453.5 845 L 1465.5 845 L 1473.5 847 Q 1486.8 852.8 1495 863.5 L 1501 875.5 Q 1500.4 881.6 1503 884.5 L 1503 902.5 Q 1494.1 952.1 1464.5 981 Q 1454.7 990.7 1440.5 996 L 1431.5 998 L 1413.5 998 Q 1396.7 995.3 1388 984.5 L 1379 966.5 Q 1380.3 961.8 1378 960.5 L 1378 938.5 Q 1387.2 888.2 1418.5 860 L 1431.5 851 L 1441.5 847 L 1446.5 847 L 1453.5 845 Z M 1459 861 L 1452 864 Q 1438 876 1429 892 Q 1414 918 1406 953 L 1406 971 L 1409 977 L 1416 981 Q 1427 982 1432 977 L 1447 959 L 1466 923 L 1474 899 L 1474 894 L 1476 888 Q 1478 874 1473 867 L 1466 861 L 1459 861 Z " /><path fill="rgb(58,54,47)" stroke="rgb(58,54,47)" stroke-width="0" opacity="1" d="M 1964.5 1148 L 1966 1149.5 L 1966 1203.5 L 1965 1204.5 L 1965 1220.5 L 1964 1221.5 L 1964 1233.5 L 1962 1242.5 L 1962 1251.5 L 1958 1273 L 1953.5 1274 L 1951 1270.5 L 1953 1261.5 L 1953 1259.5 L 1954 1243.5 L 1955 1242.5 L 1955 1230.5 L 1956 1229.5 L 1956 1217.5 L 1959 1201.5 L 1960 1180.5 L 1961 1179.5 L 1961 1171.5 L 1962 1170.5 L 1963 1153.5 L 1964.5 1148 Z " /><path fill="rgb(58,54,47)" stroke="rgb(58,54,47)" stroke-width="0" opacity="1" d="M 1415 1172 Q 1418 1170.8 1417 1174.5 L 1416 1175.5 L 1416 1185.5 L 1414 1196.5 L 1412 1203.5 L 1409.5 1206 L 1407 1205 L 1412 1180.5 L 1415 1172 Z " /><path fill="rgb(58,54,47)" stroke="rgb(58,54,47)" stroke-width="0" opacity="1" d="M 1382.5 1175 L 1383 1182.5 L 1381 1192 Q 1376.9 1193.7 1378 1189.5 L 1382.5 1175 Z " /><path fill="rgb(58,54,47)" stroke="rgb(58,54,47)" stroke-width="0" opacity="1" d="M 1941.5 1186 L 1942 1214.5 L 1942 1216.5 L 1941 1218.5 L 1940 1242.5 L 1935 1270 L 1931 1269.5 L 1931 1248.5 L 1932 1247.5 L 1932 1239.5 L 1934 1230.5 L 1934 1228.5 L 1937 1203.5 L 1941.5 1186 Z " /><path fill="rgb(58,54,47)" stroke="rgb(58,54,47)" stroke-width="0" opacity="1" d="M 405.5 1340 L 408.5 1341 L 410.5 1340 L 412.5 1340 L 415.5 1341 L 420.5 1340 L 423.5 1341 L 425.5 1341 L 446.5 1341 L 447.5 1342 L 449.5 1342 L 462.5 1342 L 463.5 1343 L 465.5 1343 L 474.5 1343 L 475.5 1344 L 477.5 1344 L 504.5 1346 L 525.5 1350 L 538.5 1351 L 597.5 1363 L 646.5 1376 L 706.5 1395 L 806.5 1433 L 964.5 1503 L 975.5 1509 L 1054.5 1542 L 1065.5 1545 L 1067.5 1547 L 1083.5 1553 L 1143.5 1572 L 1155.5 1574 L 1167.5 1578 L 1172.5 1578 L 1180.5 1581 L 1186.5 1581 L 1191.5 1583 L 1209.5 1585 L 1216.5 1587 L 1231.5 1588 L 1232.5 1589 L 1261.5 1590 L 1262.5 1591 L 1309.5 1591 L 1310.5 1590 L 1336.5 1589 L 1337.5 1588 L 1345.5 1588 L 1346.5 1587 L 1364.5 1585 L 1364.5 1586 L 1355.5 1589 L 1315.5 1596 L 1305.5 1596 L 1295.5 1598 L 1277.5 1598 L 1276.5 1599 L 1247.5 1599 L 1245.5 1598 L 1243.5 1598 L 1206.5 1596 L 1160.5 1588 L 1124.5 1579 L 1071.5 1562 L 979.5 1526 L 852.5 1469 L 847.5 1468 L 836.5 1462 L 766.5 1433 L 709.5 1412 L 706.5 1412 L 664.5 1397 L 624.5 1385 L 604.5 1381 L 575.5 1373 L 570.5 1373 L 540.5 1366 L 495.5 1360 L 494.5 1359 L 488.5 1359 L 487.5 1358 L 470.5 1357 L 469.5 1356 L 458.5 1356 L 457.5 1355 L 445.5 1355 L 444.5 1354 L 376.5 1354 L 375.5 1355 L 360.5 1355 L 359.5 1356 L 349.5 1356 L 348.5 1357 L 338.5 1357 L 330.5 1359 L 322.5 1359 L 278.5 1367 L 249.5 1375 L 210.5 1390 L 213.5 1386 L 234.5 1373 L 245.5 1368 L 287.5 1354 L 336.5 1345 L 355.5 1344 L 364.5 1342 L 404.5 1341 L 405.5 1340 Z " /></svg>